<svg width="81" height="111" viewBox="0 0 81 111" fill="none" xmlns="http://www.w3.org/2000/svg">
<g clip-path="url(#clip0_93_329)">
<path d="M21.6696 89.5918H0V111H21.6696V89.5918Z" fill="white"/>
<path d="M21.6696 60.3784H0V81.7866H21.6696V60.3784Z" fill="white"/>
<path d="M21.6696 31.165H0V52.5545H21.6696V31.165Z" fill="white"/>
<path d="M51.3347 89.5918H29.665V111H51.3347V89.5918Z" fill="white"/>
<path d="M51.3347 60.3784H29.665V81.7866H51.3347V60.3784Z" fill="white"/>
<path d="M81.0002 89.5918H59.3306V111H81.0002V89.5918Z" fill="white"/>
<path d="M81.0002 60.3784H59.3306V81.7866H81.0002V60.3784Z" fill="white"/>
<path d="M81.0002 31.165H59.3306V52.5545H81.0002V31.165Z" fill="white"/>
<path d="M0.151855 23.2094L10.8822 0L21.6126 23.2094H0.151855Z" fill="white"/>
<path d="M59.5391 23.2094L70.2504 0L80.9998 23.2094H59.5391Z" fill="white"/>
</g>
<defs>
<clipPath id="clip0_93_329">
<rect width="81" height="111" fill="white"/>
</clipPath>
</defs>
</svg>
