<svg width="98" height="116" viewBox="0 0 98 116" fill="none" xmlns="http://www.w3.org/2000/svg">
<path d="M11.0194 33.0575L0 53.687V33.0575H11.0194Z" fill="black"/>
<path d="M11.0561 82.759H0V62.0614L11.0561 82.759Z" fill="black"/>
<path d="M11.3449 84.8566L9.42623 91.3223L7.88496 96.5347C4.96498 92.9322 2.49589 89.015 0.519531 84.8566H11.3449Z" fill="black"/>
<path d="M11.3661 30.9599H0.488281C2.46988 26.7753 4.94948 22.8371 7.87994 19.2136L11.3661 30.9599Z" fill="black"/>
<path d="M18.9986 47.326L24.1413 57.9764L12.7235 81.427L0.136719 57.8715L12.7183 34.3265L18.9986 47.326Z" fill="black"/>
<path d="M24.2552 82.759H14.4102L24.2552 62.5333V82.759Z" fill="black"/>
<path d="M12.9843 13.6709C16.3551 10.4564 20.14 7.61937 24.2605 5.2334V15.9939H10.6934C11.4483 15.1811 12.2189 14.405 12.9843 13.6709Z" fill="black"/>
<path d="M9.73438 18.0914H24.2608V30.9599H13.5508L9.73438 18.0914Z" fill="black"/>
<path d="M14.4375 33.0575H24.2616V53.3985L19.9 44.3686L14.4375 33.0575Z" fill="black"/>
<path d="M13.5298 84.8566H24.2608V97.6568H9.73438L12.1353 89.5656L13.5298 84.8566Z" fill="black"/>
<path d="M10.6934 99.7596H24.2605V110.51C20.1558 108.134 16.3708 105.297 12.9843 102.078C12.2031 101.328 11.4378 100.551 10.6934 99.7596Z" fill="black"/>
<path d="M45.6197 84.8566L26.3594 96.8179V84.8566H45.6197Z" fill="black"/>
<path d="M45.7298 30.9599H26.3594V18.9252L38.0498 26.188L45.7298 30.9599Z" fill="black"/>
<path d="M26.3594 100.803L46.254 115.738H35.6226L32.2465 114.395C30.3016 113.624 28.3252 112.707 26.3594 111.669V100.803Z" fill="black"/>
<path d="M46.2645 0L26.3594 14.9398V4.06926C28.3986 2.99426 30.3278 2.10283 32.2517 1.34246L35.6226 0H46.2645Z" fill="black"/>
<path d="M71.3961 98.7844L49.4098 115.476L27.1719 98.7844L49.4098 84.9719L71.3961 98.7844Z" fill="black"/>
<path d="M27.166 16.9588L49.404 0.262207L71.3955 16.9588L49.404 30.7712L27.166 16.9588Z" fill="black"/>
<path d="M65.7551 1.34246C67.9044 2.19722 70.0695 3.20929 72.1874 4.3577V14.9242L52.5234 0H62.3685L65.7551 1.34246Z" fill="black"/>
<path d="M53.0469 30.9599L72.1866 18.9409V30.9599H53.0469Z" fill="black"/>
<path d="M26.3594 33.0575H72.1878V57.4573L72.172 57.494L72.1563 57.5255L72.1511 57.5359V58.4275L72.1878 58.5061V82.759H26.3594V33.0575Z" fill="black"/>
<path d="M53.1621 84.8566H72.1865V96.8074L54.6247 85.7742L53.1621 84.8566Z" fill="black"/>
<path d="M52.5234 115.743L72.1874 100.819V111.385C70.0643 112.534 67.9044 113.551 65.7551 114.401L62.3685 115.743H52.5234Z" fill="black"/>
<path d="M83.7881 33.0575L74.2891 53.042V33.0575H83.7881Z" fill="black"/>
<path d="M74.2891 82.759V62.8848L83.8143 82.759H74.2891Z" fill="black"/>
<path d="M87.3005 15.9939H74.2891V5.55334C78.1946 7.87638 81.796 10.5979 85.0043 13.6656C85.7854 14.4207 86.5508 15.1968 87.3005 15.9939Z" fill="black"/>
<path d="M74.2891 99.7544H87.3057C86.5613 100.546 85.7907 101.322 85.0043 102.078C81.796 105.145 78.1946 107.872 74.2891 110.19V99.7544Z" fill="black"/>
<path d="M84.8517 84.8566L88.2907 97.6568H74.2832V84.8566H84.8517Z" fill="black"/>
<path d="M84.8524 30.9599H74.2891V18.0914H88.3018L84.8524 30.9599Z" fill="black"/>
<path d="M87.0273 84.8566H97.4806C95.5252 88.9835 93.0718 92.8849 90.1571 96.4875L87.0273 84.8566Z" fill="black"/>
<path d="M87.0332 30.9494L90.1629 19.2607C93.0776 22.8685 95.5415 26.791 97.5126 30.9494H87.0332Z" fill="black"/>
<path d="M85.4913 81.4008L74.2832 58.0289V57.9291L84.6106 36.209L85.4913 34.3579L97.8632 57.8715L85.4913 81.4008Z" fill="black"/>
<path d="M98.0005 33.0575V53.6292L87.1855 33.0575H98.0005Z" fill="black"/>
<path d="M87.1484 82.759L98 62.1191V82.759H87.1484Z" fill="black"/>
</svg>
