<svg width="80" height="117" viewBox="0 0 80 117" fill="none" xmlns="http://www.w3.org/2000/svg">
<rect x="0.5" y="0.5" width="79" height="116" rx="5.5" stroke="#907843"/>
<path d="M30.8034 18.7242C36.4049 15.3016 43.5963 15.3016 49.1997 18.7242C56.3892 23.1181 57.7335 30.9753 54.8457 40.6957C51.1804 53.0261 40.0045 62.9981 40.0045 62.9981C40.0045 62.9981 28.8247 53.0281 25.1632 40.6957C22.2716 30.9753 23.6159 23.1181 30.8053 18.7242H30.8034Z" stroke="#364B37" stroke-miterlimit="10"/>
<path d="M39.994 24.3602L34.7697 25.939L32.0869 34.2006L34.7697 44.9348L39.9998 50.3116L45.3131 44.9348L47.8469 34.2006L45.3131 25.939L39.994 24.3602Z" stroke="#364B37" stroke-linejoin="bevel"/>
<path d="M29.3601 39.618L23.7354 32.8327L29.3601 27.3611L32.0873 34.2006L29.3601 39.618Z" stroke="#364B37" stroke-linejoin="bevel"/>
<path d="M50.4956 39.618L56.248 32.8327L50.4956 27.3611L47.8496 34.2006L50.4956 39.618Z" stroke="#364B37" stroke-linejoin="bevel"/>
<path d="M40.0005 63L36.459 52.705L40.0005 50.3116L43.7645 52.705L40.0005 63Z" stroke="#364B37" stroke-linejoin="bevel"/>
<path d="M39.9964 16L35.3271 20.8486L39.9964 24.3603L44.7139 20.8486L39.9964 16Z" stroke="#364B37" stroke-linejoin="bevel"/>
<path d="M51.7757 20.6705L50.4953 27.3611L45.3154 25.939L44.7158 20.8505L51.7757 20.6725V20.6705Z" stroke="#364B37" stroke-linejoin="bevel"/>
<path d="M28.2383 20.657L29.3601 27.361L34.7701 25.939L35.3272 20.8505L28.2383 20.6589V20.657Z" stroke="#364B37" stroke-linejoin="bevel"/>
<path d="M28.376 48.2472L29.3605 39.618L34.7705 44.9348L36.4571 52.705L28.374 48.2472H28.376Z" stroke="#364B37" stroke-linejoin="bevel"/>
<path d="M51.6069 48.2472L50.4928 39.618L45.313 44.9348L43.7637 52.705L51.6069 48.2472Z" stroke="#364B37" stroke-linejoin="bevel"/>
<path d="M32.8643 55.0596L36.458 52.705" stroke="#364B37" stroke-linejoin="bevel"/>
<path d="M47.0441 55.2008L43.7637 52.705" stroke="#364B37" stroke-linejoin="bevel"/>
<path d="M54.8413 40.6957L50.4932 39.618" stroke="#364B37" stroke-linejoin="bevel"/>
<path d="M25.1436 40.688L29.3582 39.618" stroke="#364B37" stroke-linejoin="bevel"/>
<path d="M24.7334 25.9293L29.3601 27.3611" stroke="#364B37" stroke-linejoin="bevel"/>
<path d="M55.2378 25.8635L50.4912 27.3611" stroke="#364B37" stroke-linejoin="bevel"/>
<path d="M45.9053 17.1628L44.7139 20.8486" stroke="#364B37" stroke-linejoin="bevel"/>
<path d="M33.8916 17.2344L35.3268 20.8486" stroke="#364B37" stroke-linejoin="bevel"/>
<path d="M23.9339 94V82.8H28.1259C30.6539 82.8 32.3179 84.144 32.3179 86.352V86.384C32.3179 88.8 30.3019 90.048 27.9179 90.048H25.1979V94H23.9339ZM25.1979 88.896H27.9659C29.8219 88.896 31.0379 87.904 31.0379 86.432V86.4C31.0379 84.8 29.8379 83.968 28.0299 83.968H25.1979V88.896ZM37.7753 94.192C35.5033 94.192 33.6473 92.448 33.6473 89.888V89.856C33.6473 87.472 35.3273 85.552 37.6153 85.552C40.0633 85.552 41.4713 87.504 41.4713 89.92C41.4713 90.08 41.4713 90.176 41.4553 90.32H34.8953C35.0713 92.112 36.3353 93.12 37.8073 93.12C38.9433 93.12 39.7433 92.656 40.4153 91.952L41.1833 92.64C40.3513 93.568 39.3433 94.192 37.7753 94.192ZM34.8953 89.408H40.2233C40.0953 87.904 39.2313 86.592 37.5833 86.592C36.1433 86.592 35.0553 87.792 34.8953 89.408ZM45.9161 94.176C44.3801 94.176 42.8281 93.296 42.8281 91.6V91.568C42.8281 89.824 44.2681 88.896 46.3641 88.896C47.4201 88.896 48.1721 89.04 48.9081 89.248V88.96C48.9081 87.472 47.9961 86.704 46.4441 86.704C45.4681 86.704 44.7001 86.96 43.9321 87.312L43.5641 86.304C44.4761 85.888 45.3721 85.616 46.5721 85.616C47.7401 85.616 48.6361 85.92 49.2441 86.528C49.8041 87.088 50.0921 87.888 50.0921 88.944V94H48.9081V92.752C48.3321 93.504 47.3721 94.176 45.9161 94.176ZM46.1561 93.2C47.6761 93.2 48.9241 92.272 48.9241 90.96V90.16C48.3161 89.984 47.5001 89.808 46.4921 89.808C44.9401 89.808 44.0761 90.48 44.0761 91.52V91.552C44.0761 92.592 45.0361 93.2 46.1561 93.2ZM52.5417 94V85.728H53.7737V87.888C54.3817 86.512 55.5817 85.52 57.1497 85.584V86.912H57.0537C55.2457 86.912 53.7737 88.208 53.7737 90.704V94H52.5417Z" fill="#766C63"/>
</svg>
