<svg width="80" height="117" viewBox="0 0 80 117" fill="none" xmlns="http://www.w3.org/2000/svg">
<rect x="0.5" y="0.5" width="79" height="116" rx="5.5" stroke="#E8E6E1"/>
<path d="M59.8257 20.7772L57.0341 26.9579L59.9959 34.2702V20.499H45.2305L53.3666 23.3039L59.8236 20.7772H59.8257Z" stroke="#364B37" stroke-linejoin="round"/>
<path d="M40.131 24.0887L45.2161 20.5011H45.1434L40.1289 24.0887H40.131Z" stroke="#364B37" stroke-linejoin="bevel"/>
<path d="M53.4158 30.6223L57.0335 26.9579L52.4756 27.7552L53.4158 30.6223Z" stroke="#364B37" stroke-linejoin="bevel"/>
<path d="M23.7337 39.4211L23.7129 39.4855L26.6124 48.1784L23.7337 39.4191V39.4211Z" stroke="#364B37" stroke-linejoin="bevel"/>
<path d="M56.2683 39.4855L56.2558 39.444L52.3683 51.141L39.998 54.766L49.5103 51.9757L53.4434 55.7917L52.4119 51.2719L56.9428 51.9798L53.348 48.1846L56.2662 39.4876L56.2683 39.4855Z" stroke="#364B37" stroke-linejoin="bevel"/>
<path d="M52.4557 27.6826L53.371 23.304L49.5479 26.7981L52.4391 27.6306L52.4557 27.6826Z" stroke="#364B37" stroke-linejoin="bevel"/>
<path d="M59.9952 34.2847L56.2676 39.4855L56.2925 39.5187L59.9952 34.2826V34.2847Z" stroke="#364B37" stroke-linejoin="bevel"/>
<path d="M26.6775 55.6525L30.2101 51.9092L27.5845 51.1452L26.6132 48.1825L22.9893 52.0878L27.5845 51.276L26.6775 55.6546V55.6525Z" stroke="#364B37" stroke-linejoin="bevel"/>
<path d="M27.5776 27.616L30.4709 26.7835L26.5439 23.2271L27.561 27.67L27.5776 27.616Z" stroke="#364B37" stroke-linejoin="bevel"/>
<path d="M20.1888 20.7585L26.5441 23.2271L34.6947 20.5011H20.002V34.3761L23.0468 27.0369L20.1908 20.7565L20.1888 20.7585Z" stroke="#364B37" stroke-linejoin="round"/>
<path d="M59.9915 44.6489L57.779 41.5948L59.979 44.6717L56.9425 51.9798L59.7985 58.2602L53.4452 55.7917L45.3257 58.4491L42.1107 56.2276L45.307 58.4429L34.8608 58.4595L39.9998 54.7681L30.2095 51.9092L39.9957 54.7639L34.6678 58.4449L26.5482 55.7875L26.5648 55.7667L20.2116 58.2706L22.9887 52.0815L20.0186 44.7111L20.002 44.7402V58.5031H59.9977V39.4958L59.9936 44.6447L59.9915 44.6489Z" stroke="#364B37" stroke-linejoin="round"/>
<path d="M23.0449 27.0369L26.4799 30.9421L27.5343 27.7365L23.0449 27.0369Z" stroke="#364B37" stroke-linejoin="bevel"/>
<path d="M56.2581 39.444L53.4187 30.6224L52.4785 27.7552L52.4391 27.7614L52.4577 27.6825L52.4391 27.6306L49.5499 26.7981L40.0024 24.1801L30.4756 26.7815L27.5823 27.614L27.5657 27.668L27.5823 27.7448L27.5387 27.7365L26.4844 30.9421L23.7363 39.4212L26.6172 48.1805L27.5885 51.1432L30.2141 51.9072L40.0024 54.7661L52.3726 51.1411L56.2622 39.444H56.2581Z" stroke="#364B37" stroke-linejoin="bevel"/>
<path d="M40.1288 24.0886L39.998 24.1821" stroke="#364B37" stroke-linejoin="bevel"/>
<path d="M27.5823 51.2739L22.987 52.0857L20.21 58.2747L26.5632 55.7709L26.6753 55.6525L27.5802 51.2739H27.5823Z" stroke="#364B37" stroke-linejoin="bevel"/>
<path d="M53.4456 55.7917L59.8009 58.2602L56.945 51.9798L52.4141 51.2719L53.4456 55.7917Z" stroke="#364B37" stroke-linejoin="bevel"/>
<path d="M52.476 27.7573L57.0338 26.96L59.8255 20.7793L53.3684 23.306L52.4531 27.6846L52.476 27.7573Z" stroke="#364B37" stroke-linejoin="bevel"/>
<path d="M52.4365 27.7635L52.478 27.7573L52.4552 27.6846L52.4365 27.7635Z" stroke="#364B37" stroke-linejoin="bevel"/>
<path d="M27.5589 27.668L26.5418 23.225L20.1865 20.7565L23.0425 27.0369L27.5319 27.7365L27.5589 27.668Z" stroke="#364B37" stroke-linejoin="bevel"/>
<path d="M27.5778 27.7448L27.5612 27.668L27.5342 27.7365L27.5778 27.7448Z" stroke="#364B37" stroke-linejoin="bevel"/>
<path d="M20 34.3761V44.6718L23.7111 39.4876L20 34.3761Z" stroke="#364B37" stroke-linejoin="bevel"/>
<path d="M20 44.6718V44.7444L20.0166 44.7153L20 44.6697V44.6718Z" stroke="#364B37" stroke-linejoin="bevel"/>
<path d="M34.8604 58.4596L45.3066 58.443L42.1102 56.2277L39.9994 54.7703L34.8604 58.4617V58.4596Z" stroke="#364B37" stroke-linejoin="bevel"/>
<path d="M59.9961 39.5V34.2784V34.2847V39.5Z" stroke="#364B37" stroke-linejoin="bevel"/>
<path d="M56.2949 39.5207L57.7789 41.5948L59.9915 44.6489L59.9977 39.5V34.2847L56.2949 39.5207Z" stroke="#364B37" stroke-linejoin="bevel"/>
<path d="M45.1451 20.5011H45.1513L34.7051 20.499H34.7113L45.1451 20.5011Z" stroke="#364B37" stroke-linejoin="bevel"/>
<path d="M39.8645 24.0887L39.9994 24.0513L40.1302 24.0887L45.1447 20.5011H34.7109L39.8645 24.0887Z" stroke="#364B37" stroke-linejoin="bevel"/>
<path d="M40.1309 24.0886L40.0001 24.0513L39.8652 24.0886L40.0001 24.1821L40.1309 24.0886Z" stroke="#364B37" stroke-linejoin="bevel"/>
<path d="M34.7058 20.4969H34.6934L34.71 20.499H34.7058V20.4969Z" stroke="#364B37" stroke-linejoin="bevel"/>
<path d="M30.4709 26.7835L39.8648 24.0887L34.7112 20.5011H34.6946L26.5439 23.2271L30.4709 26.7835Z" stroke="#364B37" stroke-linejoin="bevel"/>
<path d="M39.8625 24.0886L30.4707 26.7835L39.9975 24.1821L39.8625 24.0886Z" stroke="#364B37" stroke-linejoin="bevel"/>
<path d="M45.2201 20.4969H45.2139L45.2305 20.499H45.2201V20.4969Z" stroke="#364B37" stroke-linejoin="bevel"/>
<path d="M49.5475 26.8001L53.3706 23.3059L45.2345 20.5011H45.2179L40.1328 24.0887L49.5496 26.8001H49.5475Z" stroke="#364B37" stroke-linejoin="bevel"/>
<path d="M49.5456 26.8001L40.1288 24.0886L39.998 24.1821L49.5456 26.8001Z" stroke="#364B37" stroke-linejoin="bevel"/>
<path d="M23.7318 39.4212L23.7111 39.3568L26.4799 30.9421L23.0448 27.0369L20 34.3761L23.7111 39.4876L23.7318 39.4232V39.4212Z" stroke="#364B37" stroke-linejoin="bevel"/>
<path d="M26.4817 30.942L23.7129 39.3567L23.7337 39.4211L26.4817 30.942Z" stroke="#364B37" stroke-linejoin="bevel"/>
<path d="M26.6126 48.1804L23.713 39.4875L20.0186 44.7174L22.9887 52.0878L26.6126 48.1825V48.1804Z" stroke="#364B37" stroke-linejoin="bevel"/>
<path d="M23.7111 39.4875L20 44.6717L20.0166 44.7174L23.7111 39.4875Z" stroke="#364B37" stroke-linejoin="bevel"/>
<path d="M59.9982 34.2805V34.2722L59.9961 34.2868V34.2805H59.9982Z" stroke="#364B37" stroke-linejoin="bevel"/>
<path d="M53.418 30.6223L56.2864 39.3567L56.2573 39.444L56.2698 39.4855L59.9995 34.2847V34.2701L57.0377 26.9579L53.42 30.6223H53.418Z" stroke="#364B37" stroke-linejoin="bevel"/>
<path d="M56.2554 39.4441L56.2844 39.3568L53.416 30.6224L56.2554 39.4441Z" stroke="#364B37" stroke-linejoin="bevel"/>
<path d="M56.2948 39.5207L56.2678 39.4875L53.3496 48.1846L56.9445 51.9798L59.981 44.6717L57.7809 41.5948L56.2865 39.5353L56.2948 39.5207Z" stroke="#364B37" stroke-linejoin="bevel"/>
<path d="M56.2852 39.5353L57.7796 41.5948L56.2955 39.5208L56.2872 39.5353H56.2852Z" stroke="#364B37" stroke-linejoin="bevel"/>
<path d="M39.998 54.7661H40.0001H40.0063L42.111 56.2256L45.326 58.4471L53.4455 55.7896L49.5123 51.9736L40.0001 54.764L39.998 54.7661Z" stroke="#364B37" stroke-linejoin="bevel"/>
<path d="M40.002 54.7681L42.1128 56.2255L40.0082 54.766H40.002V54.7681Z" stroke="#364B37" stroke-linejoin="bevel"/>
<path d="M26.6774 55.6525L26.6608 55.7356L26.5674 55.7729L26.5508 55.7937L34.6703 58.4512L39.9982 54.7701L30.212 51.9154L26.6795 55.6567L26.6774 55.6525Z" stroke="#364B37" stroke-linejoin="bevel"/>
<path d="M26.6765 55.6526L26.5645 55.7709L26.6579 55.7336L26.6765 55.6505V55.6526Z" stroke="#364B37" stroke-linejoin="bevel"/>
<path d="M9.50469 94V82.8H13.6967C16.2247 82.8 17.8887 84.144 17.8887 86.352V86.384C17.8887 88.8 15.8727 90.048 13.4887 90.048H10.7687V94H9.50469ZM10.7687 88.896H13.5367C15.3927 88.896 16.6087 87.904 16.6087 86.432V86.4C16.6087 84.8 15.4087 83.968 13.6007 83.968H10.7687V88.896ZM19.8082 94V85.728H21.0402V87.888C21.6482 86.512 22.8482 85.52 24.4162 85.584V86.912H24.3202C22.5122 86.912 21.0402 88.208 21.0402 90.704V94H19.8082ZM26.1486 83.92V82.56H27.5566V83.92H26.1486ZM26.2286 94V85.728H27.4606V94H26.2286ZM30.1437 94V85.728H31.3757V87.168C31.9197 86.272 32.7837 85.552 34.2077 85.552C36.2077 85.552 37.3757 86.896 37.3757 88.864V94H36.1437V89.168C36.1437 87.632 35.3117 86.672 33.8557 86.672C32.4317 86.672 31.3757 87.712 31.3757 89.264V94H30.1437ZM43.5551 94.192C41.1391 94.192 39.3151 92.224 39.3151 89.904V89.872C39.3151 87.536 41.1391 85.552 43.5551 85.552C45.1231 85.552 46.0991 86.208 46.8671 87.024L46.0511 87.888C45.3951 87.2 44.6591 86.64 43.5391 86.64C41.8591 86.64 40.5791 88.064 40.5791 89.84V89.872C40.5791 91.664 41.8911 93.088 43.6191 93.088C44.6751 93.088 45.4911 92.56 46.1471 91.856L46.9311 92.592C46.0991 93.52 45.1071 94.192 43.5551 94.192ZM52.1733 94.192C49.9013 94.192 48.0453 92.448 48.0453 89.888V89.856C48.0453 87.472 49.7253 85.552 52.0133 85.552C54.4613 85.552 55.8693 87.504 55.8693 89.92C55.8693 90.08 55.8693 90.176 55.8533 90.32H49.2933C49.4693 92.112 50.7333 93.12 52.2053 93.12C53.3413 93.12 54.1413 92.656 54.8133 91.952L55.5813 92.64C54.7493 93.568 53.7413 94.192 52.1733 94.192ZM49.2933 89.408H54.6213C54.4933 87.904 53.6293 86.592 51.9813 86.592C50.5413 86.592 49.4533 87.792 49.2933 89.408ZM60.5861 94.16C59.4021 94.16 58.0901 93.696 57.1621 92.944L57.7861 92.064C58.6821 92.736 59.6741 93.12 60.6501 93.12C61.6421 93.12 62.3621 92.608 62.3621 91.808V91.776C62.3621 90.944 61.3861 90.624 60.2981 90.32C59.0021 89.952 57.5621 89.504 57.5621 87.984V87.952C57.5621 86.528 58.7461 85.584 60.3781 85.584C61.3861 85.584 62.5061 85.936 63.3541 86.496L62.7941 87.424C62.0261 86.928 61.1461 86.624 60.3461 86.624C59.3701 86.624 58.7461 87.136 58.7461 87.824V87.856C58.7461 88.64 59.7701 88.944 60.8741 89.28C62.1541 89.664 63.5301 90.16 63.5301 91.648V91.68C63.5301 93.248 62.2341 94.16 60.5861 94.16ZM68.2226 94.16C67.0386 94.16 65.7266 93.696 64.7986 92.944L65.4226 92.064C66.3186 92.736 67.3106 93.12 68.2866 93.12C69.2786 93.12 69.9986 92.608 69.9986 91.808V91.776C69.9986 90.944 69.0226 90.624 67.9346 90.32C66.6386 89.952 65.1986 89.504 65.1986 87.984V87.952C65.1986 86.528 66.3826 85.584 68.0146 85.584C69.0226 85.584 70.1426 85.936 70.9906 86.496L70.4306 87.424C69.6626 86.928 68.7826 86.624 67.9826 86.624C67.0066 86.624 66.3826 87.136 66.3826 87.824V87.856C66.3826 88.64 67.4066 88.944 68.5106 89.28C69.7906 89.664 71.1666 90.16 71.1666 91.648V91.68C71.1666 93.248 69.8706 94.16 68.2226 94.16Z" fill="#766C63"/>
</svg>
