<svg width="80" height="117" viewBox="0 0 80 117" fill="none" xmlns="http://www.w3.org/2000/svg">
<rect x="0.5" y="0.5" width="79" height="116" rx="5.5" stroke="#E8E6E1"/>
<path d="M31.9552 18.7534C30.3043 19.9398 28.8174 21.4823 27.5371 23.3035H35.8535L31.9552 18.7534Z" stroke="#364B37" stroke-linejoin="bevel"/>
<path d="M44.0314 23.228L44.0719 23.2996H52.465C50.3859 20.3346 47.7402 18.1166 44.7664 16.9515C45.7718 17.3657 46.8092 17.9289 47.8594 18.6856L44.0293 23.228H44.0314Z" stroke="#364B37" stroke-linejoin="bevel"/>
<path d="M35.9345 29.9031V23.3905L35.8578 23.2996H27.5414C27.5414 23.2996 27.5414 23.3034 27.5371 23.3054L29.1966 31.0488L35.9323 29.9031H35.9345Z" stroke="#364B37" stroke-linejoin="bevel"/>
<path d="M24.2611 29.9321C23.4474 32.4075 22.9361 35.1093 22.7998 37.9523L29.1969 31.0527L24.2611 29.9321Z" stroke="#364B37" stroke-linejoin="bevel"/>
<path d="M44.0723 29.9302L50.6355 31.0508L52.4717 23.3073C52.4717 23.3073 52.4717 23.3034 52.4675 23.3015H44.0744V29.9321L44.0723 29.9302Z" stroke="#364B37" stroke-linejoin="bevel"/>
<path d="M44.2451 16.7561C44.3665 16.8006 44.4858 16.8432 44.6094 16.8916C44.488 16.8471 44.3687 16.7967 44.2451 16.7561Z" stroke="#364B37" stroke-linejoin="bevel"/>
<path d="M55.7462 29.9321C54.9367 27.4703 53.8226 25.235 52.472 23.3093L50.6357 31.0527L55.7462 29.9321Z" stroke="#364B37" stroke-linejoin="bevel"/>
<path d="M57.2046 37.9485C57.0661 35.1054 56.557 32.4036 55.7432 29.9283L50.6328 31.0489L57.2024 37.9485H57.2046Z" stroke="#364B37" stroke-linejoin="bevel"/>
<path d="M27.531 23.3054C26.1804 25.2311 25.0663 27.4665 24.2568 29.9283L29.1926 31.0489L27.531 23.3054Z" stroke="#364B37" stroke-linejoin="bevel"/>
<path d="M35.9322 55.8062V47.9853L29.2923 42.2585L27.5859 55.8062C27.5859 55.8062 27.5859 55.8101 27.5902 55.812H35.9236V55.8062H35.9322Z" stroke="#364B37" stroke-linejoin="bevel"/>
<path d="M44.0723 48.026V55.634L44.2235 55.812H52.4142C52.4142 55.812 52.4142 55.8081 52.4185 55.8062L50.7463 42.2527L44.0723 48.026Z" stroke="#364B37" stroke-linejoin="bevel"/>
<path d="M35.9283 55.814H27.5928C30.1746 59.4563 33.6085 61.9685 37.4621 62.7446C35.775 62.3846 33.9749 61.6317 32.1238 60.2963L35.9305 55.814H35.9262H35.9283Z" stroke="#364B37" stroke-linejoin="bevel"/>
<path d="M48.0297 60.2886C48.0297 60.2886 47.9999 60.3157 47.9402 60.3602C49.6103 59.1796 51.1186 57.639 52.4095 55.814H44.2188L48.0297 60.2924V60.2886Z" stroke="#364B37" stroke-linejoin="bevel"/>
<path d="M50.7441 42.2528L52.4164 55.8062C53.9885 53.5864 55.2389 50.9465 56.074 48.0222L50.7441 42.2509V42.2528Z" stroke="#364B37" stroke-linejoin="bevel"/>
<path d="M57.2072 38.0201L50.7441 42.2528L56.074 48.0241C56.8281 45.3861 57.2456 42.5198 57.2456 39.5181C57.2456 39.0149 57.2307 38.5155 57.2072 38.0201ZM57.2072 38.0201H57.203" stroke="#364B37" stroke-linejoin="bevel"/>
<path d="M29.2879 42.2585L23.9219 48.0221C24.7591 50.9465 26.0095 53.5844 27.5816 55.8062L29.2879 42.2585Z" stroke="#364B37" stroke-linejoin="bevel"/>
<path d="M22.793 38.0201C22.7717 38.5155 22.7568 39.0149 22.7568 39.5181C22.7568 42.5198 23.1744 45.3823 23.9285 48.0241L29.2924 42.2605L22.793 38.022V38.0201Z" stroke="#364B37" stroke-linejoin="bevel"/>
<path d="M35.9346 47.9815V55.8062L40.0736 50.933L35.9346 47.9815Z" stroke="#364B37" stroke-linejoin="bevel"/>
<path d="M35.9346 23.3906V29.9031L39.9479 28.0761L35.9346 23.3925V23.3906Z" stroke="#364B37" stroke-linejoin="bevel"/>
<path d="M44.0724 29.9283V23.2977L44.0319 23.2261L39.9482 28.0723L44.0745 29.9264L44.0724 29.9283Z" stroke="#364B37" stroke-linejoin="bevel"/>
<path d="M44.0699 55.634V48.026L40.0693 50.9329L44.0699 55.634Z" stroke="#364B37" stroke-linejoin="bevel"/>
<path d="M35.9258 55.814H35.9323V55.8081L35.9258 55.814Z" stroke="#364B37" stroke-linejoin="bevel"/>
<path d="M44.2239 55.8139H44.0726L40.0039 63C42.8669 63 45.5681 62.042 47.9433 60.3621C48.0029 60.3176 48.0306 60.2905 48.0306 60.2905L44.2218 55.812H44.226L44.2239 55.8139Z" stroke="#364B37" stroke-linejoin="bevel"/>
<path d="M44.2235 55.8139L44.0723 55.6359V55.8139H44.2235Z" stroke="#364B37" stroke-linejoin="bevel"/>
<path d="M35.935 55.814H35.9307L32.124 60.2963C33.9773 61.6317 35.7795 62.3846 37.4624 62.7446C38.291 62.9129 39.1431 63 40.0037 63L35.935 55.814Z" stroke="#364B37" stroke-linejoin="bevel"/>
<path d="M35.9346 55.8062V55.812L40.0033 62.9981L44.072 55.812V55.634L40.0736 50.9329L35.9346 55.8062Z" stroke="#364B37" stroke-linejoin="bevel"/>
<path d="M44.6094 16.8915C44.6648 16.9109 44.7159 16.9322 44.767 16.9515C44.7116 16.9283 44.6605 16.9109 44.6094 16.8915Z" stroke="#364B37" stroke-linejoin="bevel"/>
<path d="M44.247 16.7561C37.3664 14.2594 31.9492 18.7456 31.9492 18.7456V18.7534C34.3585 17.0231 37.0958 16.0419 40.0036 16.0419C41.4671 16.0419 42.8879 16.2916 44.247 16.7599V16.7561Z" stroke="#364B37" stroke-linejoin="bevel"/>
<path d="M44.0292 23.228L47.8594 18.6857C46.8092 17.9328 45.7739 17.3677 44.7663 16.9516C44.7152 16.9322 44.6576 16.9109 44.6065 16.8916C44.4851 16.8451 44.3658 16.8006 44.2444 16.7561C42.8874 16.2877 41.4666 16.0381 40.001 16.0381L44.0292 23.228Z" stroke="#364B37" stroke-linejoin="bevel"/>
<path d="M35.935 23.2996L40.0058 16.0381C37.0981 16.0381 34.3607 17.0232 31.96 18.7496L35.8604 23.2996H35.9371H35.935Z" stroke="#364B37" stroke-linejoin="bevel"/>
<path d="M35.8555 23.2996L35.9343 23.3905V23.2996H35.8555Z" stroke="#364B37" stroke-linejoin="bevel"/>
<path d="M44.0316 23.228L40.0033 16.0381L35.9346 23.2996V23.3906L39.9479 28.0742L44.0316 23.228Z" stroke="#364B37" stroke-linejoin="bevel"/>
<path d="M57.2456 37.9949L57.2051 37.9504C57.2051 37.9737 57.2051 37.9969 57.2093 38.022L57.2477 37.9988V37.9949H57.2456Z" stroke="#364B37" stroke-linejoin="bevel"/>
<path d="M22.7551 37.9969L22.7934 38.0201C22.7934 37.9969 22.7934 37.9736 22.7977 37.9485L22.7529 37.9949H22.7572L22.7551 37.9969Z" stroke="#364B37" stroke-linejoin="bevel"/>
<path d="M29.1924 31.0488L33.2547 37.9968L35.9324 29.9031L29.1924 31.0488Z" stroke="#364B37" stroke-linejoin="bevel"/>
<path d="M46.8097 37.9949L50.7422 42.2508L57.2052 38.0182C57.2052 37.9949 57.2053 37.9717 57.201 37.9466L50.6314 31.0469L46.8076 37.9949H46.8119H46.8097Z" stroke="#364B37" stroke-linejoin="bevel"/>
<path d="M33.2524 37.9949L29.19 31.0469L22.7972 37.9466C22.7972 37.9698 22.7972 37.993 22.793 38.0182L29.288 42.2547L33.2545 37.9911L33.2503 37.9949H33.2524Z" stroke="#364B37" stroke-linejoin="bevel"/>
<path d="M44.0723 48.026L50.742 42.2527L46.8096 37.9968L44.0723 48.026Z" stroke="#364B37" stroke-linejoin="bevel"/>
<path d="M50.6355 31.0489L44.0723 29.9283L46.8096 37.9949L50.6334 31.0469L50.6355 31.0489Z" stroke="#364B37" stroke-linejoin="bevel"/>
<path d="M29.2881 42.2586L35.9323 47.9815L33.2546 37.9949L29.2881 42.2586Z" stroke="#364B37" stroke-linejoin="bevel"/>
<path d="M44.072 29.9302L39.9479 28.0761L35.9345 29.9031L33.2568 37.9969L35.9345 47.9834L40.0736 50.9349L44.072 48.0279L46.8093 37.9988L44.072 29.9321V29.9302Z" stroke="#364B37" stroke-linejoin="bevel"/>
<path d="M29.0246 94.192C25.6166 94.192 23.3286 91.52 23.3286 88.432V88.4C23.3286 85.312 25.6486 82.608 29.0566 82.608C32.4646 82.608 34.7526 85.28 34.7526 88.368V88.4C34.7526 91.488 32.4326 94.192 29.0246 94.192ZM29.0566 93.024C31.6166 93.024 33.4406 90.976 33.4406 88.432V88.4C33.4406 85.856 31.5846 83.776 29.0246 83.776C26.4646 83.776 24.6406 85.824 24.6406 88.368V88.4C24.6406 90.944 26.4966 93.024 29.0566 93.024ZM39.8023 94.064L36.2183 85.728H37.5783L40.3623 92.592L43.1623 85.728H44.4903L40.8903 94.064H39.8023ZM48.3067 94.176C46.7707 94.176 45.2187 93.296 45.2187 91.6V91.568C45.2187 89.824 46.6587 88.896 48.7547 88.896C49.8107 88.896 50.5627 89.04 51.2987 89.248V88.96C51.2987 87.472 50.3867 86.704 48.8347 86.704C47.8587 86.704 47.0907 86.96 46.3227 87.312L45.9547 86.304C46.8667 85.888 47.7627 85.616 48.9627 85.616C50.1307 85.616 51.0267 85.92 51.6347 86.528C52.1947 87.088 52.4827 87.888 52.4827 88.944V94H51.2987V92.752C50.7227 93.504 49.7627 94.176 48.3067 94.176ZM48.5467 93.2C50.0667 93.2 51.3147 92.272 51.3147 90.96V90.16C50.7067 89.984 49.8907 89.808 48.8827 89.808C47.3307 89.808 46.4667 90.48 46.4667 91.52V91.552C46.4667 92.592 47.4267 93.2 48.5467 93.2ZM55.0443 94V82.32H56.2763V94H55.0443Z" fill="#766C63"/>
</svg>
