<svg width="80" height="117" viewBox="0 0 80 117" fill="none" xmlns="http://www.w3.org/2000/svg">
<path d="M39.441 20.0304C37.3117 19.3073 32.6733 17.456 28.7415 16.3484C25.2311 15.3583 21.4558 16.5165 19.1401 19.3373C17.2064 21.6929 16.479 23.7975 16.2672 26.4939C15.9012 31.1867 17.1673 35.8518 19.6603 39.8423C24.9502 48.3114 33.601 58.3947 39.9935 63C46.3791 58.3786 55.0552 48.3368 60.3474 39.8584C62.8427 35.8656 64.0996 31.1936 63.7313 26.4939C63.5218 23.7998 62.8013 21.6998 60.87 19.3396C58.5634 16.5211 54.7974 15.3698 51.2961 16.3438C47.3529 17.4353 42.7006 19.2751 40.5391 20.0258C40.1823 20.1501 39.8001 20.1501 39.4433 20.0281L39.441 20.0304Z" stroke="#364B37" stroke-miterlimit="10"/>
<path d="M40.0097 23.4382L34.6484 26.5883L39.9982 29.2823L45.3641 26.5883L40.0074 23.4382H40.0097Z" stroke="#364B37" stroke-linejoin="bevel"/>
<path d="M34.6511 26.5884L29.6904 25.0962L34.6304 18.3173L40.0101 23.4383L34.6511 26.5884Z" stroke="#364B37" stroke-linejoin="bevel"/>
<path d="M45.3664 26.5884L50.2397 25.0962L45.3664 18.3173L40.0098 23.4383" stroke="#364B37" stroke-linejoin="bevel"/>
<path d="M40.0097 47.6045L34.6484 50.1397L39.9913 63L45.3664 50.1397L40.0097 47.6045Z" stroke="#364B37" stroke-linejoin="bevel"/>
<path d="M27.1094 50.1398H34.6506V44.1276" stroke="#364B37" stroke-linejoin="bevel"/>
<path d="M52.8933 50.1398H45.3682V44.1276" stroke="#364B37" stroke-linejoin="bevel"/>
<path d="M29.6874 53.1839V40.0173L24.5287 33.7864L21.4717 42.6193H32.3162L40.0071 47.6045L47.6956 42.6193H58.5401L55.4693 33.7864L50.237 40.015V53.2575" stroke="#364B37" stroke-linejoin="bevel"/>
<path d="M32.3191 42.6193L29.6879 40.0196V25.0962H16.4355L24.5315 33.7841C24.5315 33.7841 26.4583 26.8992 34.6509 26.586" stroke="#364B37" stroke-linejoin="bevel"/>
<path d="M63.5653 25.0962H50.2416V40.0127L47.7002 42.6193" stroke="#364B37" stroke-linejoin="bevel"/>
<path d="M47.6981 42.6193L50.3269 40.0196V25.0962H63.5793L55.4856 33.7841C55.4856 33.7841 53.5566 26.8992 45.3662 26.586" stroke="#364B37" stroke-linejoin="bevel"/>
<path d="M20.0141 94V82.8H21.2781V87.776H27.7421V82.8H29.0061V94H27.7421V88.96H21.2781V94H20.0141ZM35.4024 94.192C33.1304 94.192 31.2744 92.448 31.2744 89.888V89.856C31.2744 87.472 32.9544 85.552 35.2424 85.552C37.6904 85.552 39.0984 87.504 39.0984 89.92C39.0984 90.08 39.0984 90.176 39.0824 90.32H32.5224C32.6984 92.112 33.9624 93.12 35.4344 93.12C36.5704 93.12 37.3704 92.656 38.0424 91.952L38.8104 92.64C37.9784 93.568 36.9704 94.192 35.4024 94.192ZM32.5224 89.408H37.8504C37.7224 87.904 36.8584 86.592 35.2104 86.592C33.7704 86.592 32.6824 87.792 32.5224 89.408ZM43.5431 94.176C42.0071 94.176 40.4551 93.296 40.4551 91.6V91.568C40.4551 89.824 41.8951 88.896 43.9911 88.896C45.0471 88.896 45.7991 89.04 46.5351 89.248V88.96C46.5351 87.472 45.6231 86.704 44.0711 86.704C43.0951 86.704 42.3271 86.96 41.5591 87.312L41.1911 86.304C42.1031 85.888 42.9991 85.616 44.1991 85.616C45.3671 85.616 46.2631 85.92 46.8711 86.528C47.4311 87.088 47.7191 87.888 47.7191 88.944V94H46.5351V92.752C45.9591 93.504 44.9991 94.176 43.5431 94.176ZM43.7831 93.2C45.3031 93.2 46.5511 92.272 46.5511 90.96V90.16C45.9431 89.984 45.1271 89.808 44.1191 89.808C42.5671 89.808 41.7031 90.48 41.7031 91.52V91.552C41.7031 92.592 42.6631 93.2 43.7831 93.2ZM50.1687 94V85.728H51.4007V87.888C52.0087 86.512 53.2087 85.52 54.7767 85.584V86.912H54.6807C52.8727 86.912 51.4007 88.208 51.4007 90.704V94H50.1687ZM59.2451 94.144C57.9171 94.144 56.9091 93.488 56.9091 91.808V86.816H55.7571V85.728H56.9091V83.232H58.1411V85.728H60.7651V86.816H58.1411V91.648C58.1411 92.656 58.7011 93.024 59.5331 93.024C59.9491 93.024 60.3011 92.944 60.7331 92.736V93.792C60.3011 94.016 59.8371 94.144 59.2451 94.144Z" fill="#766C63"/>
</svg>
