<svg width="80" height="117" viewBox="0 0 80 117" fill="none" xmlns="http://www.w3.org/2000/svg">
<rect x="0.5" y="0.5" width="79" height="116" rx="5.5" stroke="#907843"/>
<path d="M61.858 48.1261V48.1187C61.858 48.1187 61.8506 48.1211 61.8506 48.1261H61.858Z" stroke="#364B37" stroke-linejoin="bevel"/>
<path d="M61.8554 48.1186C62.9111 45.4481 63.4938 42.5411 63.4938 39.5L55.0752 39.678L61.8554 48.1186Z" stroke="#364B37" stroke-linejoin="bevel"/>
<path d="M50.4652 29.2913L57.8988 24.2844C55.8363 21.8579 53.2885 19.8532 50.4043 18.429L50.4506 29.2888H50.4652V29.2913Z" stroke="#364B37" stroke-linejoin="bevel"/>
<path d="M50.3973 18.4266C47.262 16.8731 43.7341 16 39.999 16V24.7113L50.3973 18.4242V18.4266Z" stroke="#364B37" stroke-linejoin="bevel"/>
<path d="M29.6496 18.6778L40.0039 24.7113V16C32.9531 16 26.6313 19.1119 22.3232 24.0333L29.6496 29.2889V18.6802V18.6778Z" stroke="#364B37" stroke-linejoin="bevel"/>
<path d="M62.246 32.0082L55.0757 39.6781L63.4943 39.5001C63.4943 33.6958 61.3853 28.3841 57.8965 24.2845L50.4629 29.2914L62.2435 32.0082H62.246Z" stroke="#364B37" stroke-linejoin="bevel"/>
<path d="M17.8029 31.7983C16.9642 34.2103 16.5059 36.8003 16.5059 39.5L25.3145 39.3585L17.8029 31.7983Z" stroke="#364B37" stroke-linejoin="bevel"/>
<path d="M29.6489 49.716L18.2169 47.9357L25.4091 39.4512L25.3165 39.3585L16.5078 39.5C16.5078 45.6457 18.8703 51.2353 22.7273 55.4227L29.6464 49.716H29.6489Z" stroke="#364B37" stroke-linejoin="bevel"/>
<path d="M29.6496 60.3198V49.7161L22.7305 55.4228C27.0239 60.0808 33.1726 63 40.0016 63V54.14L29.6472 60.3223L29.6496 60.3198Z" stroke="#364B37" stroke-linejoin="bevel"/>
<path d="M22.3209 24.0333C20.3534 26.2819 18.8077 28.9109 17.8057 31.7935L29.6473 29.2864L22.3209 24.0309V24.0333Z" stroke="#364B37" stroke-linejoin="bevel"/>
<path d="M50.5382 49.7136C50.5382 49.9941 50.6065 59.7394 50.6089 60.3174L39.9961 54.1351V62.9952C47.064 62.9952 53.3956 59.8687 57.7036 54.9302L50.5553 49.7112H50.5382V49.7136Z" stroke="#364B37" stroke-linejoin="bevel"/>
<path d="M50.5581 49.7136L57.7065 54.9326C59.4497 52.9328 60.8613 50.6379 61.8511 48.126L50.5557 49.7136H50.5581Z" stroke="#364B37" stroke-linejoin="bevel"/>
<path d="M40.0009 24.7113L29.6465 18.6777V29.2815H35.4637L39.9984 24.7088L40.0009 24.7113Z" stroke="#364B37" stroke-linejoin="bevel"/>
<path d="M29.6494 29.2839V35.1565L35.4666 29.2864H29.6494V29.2839Z" stroke="#364B37" stroke-linejoin="bevel"/>
<path d="M35.6592 49.7672L44.5922 49.7355L50.5167 44.0507L50.4776 35.1126L44.6093 29.2864H35.4666L29.6494 35.1565V43.719L35.6592 49.7696V49.7672Z" stroke="#364B37" stroke-linejoin="bevel"/>
<path d="M44.609 29.2864L40.0035 24.7113L35.4688 29.2864H44.6114H44.609Z" stroke="#364B37" stroke-linejoin="bevel"/>
<path d="M50.4509 29.2914H44.6094L50.4778 35.1152L50.4534 29.2914H50.4509Z" stroke="#364B37" stroke-linejoin="bevel"/>
<path d="M25.3145 39.3585L25.4071 39.4512L25.4851 39.3561H25.3145V39.3585Z" stroke="#364B37" stroke-linejoin="bevel"/>
<path d="M55.0761 39.678L62.2464 32.0081C62.2464 32.0081 50.4585 29.284 50.4512 29.2913L50.4755 35.1151L55.0761 39.6805V39.678Z" stroke="#364B37" stroke-linejoin="bevel"/>
<path d="M50.5141 44.0532L55.0757 39.6805L50.4775 35.1151L50.5166 44.0532H50.5141Z" stroke="#364B37" stroke-linejoin="bevel"/>
<path d="M29.647 35.1566C29.547 35.2712 25.4877 39.3269 25.4072 39.4488L29.647 43.7191V35.1566Z" stroke="#364B37" stroke-linejoin="bevel"/>
<path d="M50.5166 44.0508L50.541 49.7136C50.541 49.7136 61.8413 48.126 61.8535 48.126V48.1187L55.0733 39.6781L50.5117 44.0508H50.5142H50.5166Z" stroke="#364B37" stroke-linejoin="bevel"/>
<path d="M40.0039 54.1376L50.6167 60.3198C50.6143 59.6955 50.5412 50.0429 50.546 49.7161L44.5923 49.738L40.0039 54.14V54.1376Z" stroke="#364B37" stroke-linejoin="bevel"/>
<path d="M25.4855 39.3561L29.6473 35.1565V29.2839L17.8057 31.791V31.7983L25.3173 39.3585H25.4879H25.4855V39.3561Z" stroke="#364B37" stroke-linejoin="bevel"/>
<path d="M44.6094 29.2865H50.4509L50.4046 18.4266H50.4022L40.0039 24.7138L44.6143 29.2889H44.6118L44.6094 29.2865Z" stroke="#364B37" stroke-linejoin="bevel"/>
<path d="M44.5928 49.7356L50.5416 49.7136L50.5172 44.0508L44.5928 49.7356Z" stroke="#364B37" stroke-linejoin="bevel"/>
<path d="M35.6592 49.7673L29.6494 43.7167V49.7136L35.6592 49.7673Z" stroke="#364B37" stroke-linejoin="bevel"/>
<path d="M25.4066 39.4512L18.2119 47.9357L29.6488 49.716V43.719L25.409 39.4512H25.4066Z" stroke="#364B37" stroke-linejoin="bevel"/>
<path d="M29.6494 49.7136V60.3174L40.0038 54.1351L35.6592 49.7648L29.6494 49.7112V49.7136Z" stroke="#364B37" stroke-linejoin="bevel"/>
<path d="M35.6562 49.7673L40.0009 54.1376L44.5892 49.7356L35.6562 49.7673Z" stroke="#364B37" stroke-linejoin="bevel"/>
<path d="M15.8891 94V82.8H20.7051C22.0811 82.8 23.1851 83.216 23.8891 83.92C24.4331 84.464 24.7531 85.248 24.7531 86.128V86.16C24.7531 88.016 23.4731 89.104 21.7131 89.424L25.1531 94H23.6011L20.3531 89.648H17.1531V94H15.8891ZM17.1531 88.512H20.5931C22.2731 88.512 23.4731 87.648 23.4731 86.208V86.176C23.4731 84.8 22.4171 83.968 20.6091 83.968H17.1531V88.512ZM30.6874 94.192C28.2074 94.192 26.3994 92.24 26.3994 89.904V89.872C26.3994 87.536 28.2234 85.552 30.7194 85.552C33.1994 85.552 35.0234 87.504 35.0234 89.84V89.872C35.0234 92.208 33.1834 94.192 30.6874 94.192ZM30.7194 93.088C32.5114 93.088 33.7594 91.648 33.7594 89.904V89.872C33.7594 88.096 32.4314 86.64 30.6874 86.64C28.8954 86.64 27.6634 88.096 27.6634 89.84V89.872C27.6634 91.648 28.9754 93.088 30.7194 93.088ZM40.1191 94.176C38.1191 94.176 36.9511 92.832 36.9511 90.864V85.728H38.1831V90.56C38.1831 92.096 39.0151 93.056 40.4711 93.056C41.8791 93.056 42.9511 92.016 42.9511 90.464V85.728H44.1671V94H42.9511V92.56C42.3911 93.456 41.5431 94.176 40.1191 94.176ZM46.7625 94V85.728H47.9945V87.168C48.5385 86.272 49.4025 85.552 50.8265 85.552C52.8265 85.552 53.9945 86.896 53.9945 88.864V94H52.7625V89.168C52.7625 87.632 51.9305 86.672 50.4745 86.672C49.0505 86.672 47.9945 87.712 47.9945 89.264V94H46.7625ZM59.9179 94.176C57.9339 94.176 55.9659 92.608 55.9659 89.888V89.856C55.9659 87.152 57.9339 85.552 59.9179 85.552C61.4539 85.552 62.4459 86.384 63.0859 87.312V82.32H64.3179V94H63.0859V92.336C62.4139 93.328 61.4379 94.176 59.9179 94.176ZM60.1419 93.072C61.6779 93.072 63.1339 91.776 63.1339 89.872V89.84C63.1339 87.936 61.6779 86.656 60.1419 86.656C58.5419 86.656 57.2299 87.84 57.2299 89.84V89.872C57.2299 91.824 58.5899 93.072 60.1419 93.072Z" fill="#766C63"/>
</svg>
