<svg width="80" height="117" viewBox="0 0 80 117" fill="none" xmlns="http://www.w3.org/2000/svg">
<path d="M30.5488 23.217V29.1877H40.1597L30.5488 23.217Z" stroke="#364B37" stroke-linejoin="bevel"/>
<path d="M49.6642 55.785V49.8436H40.208L49.6642 55.785Z" stroke="#364B37" stroke-linejoin="bevel"/>
<path d="M30.5488 49.8436V55.785L40.1158 49.8436H30.5488Z" stroke="#364B37" stroke-linejoin="bevel"/>
<path d="M40.1596 16.0021H34.5837L33.1641 16.5668C32.2631 16.9223 31.3933 17.3405 30.5508 17.7923V23.215L40.1617 16L40.1596 16.0021Z" stroke="#364B37" stroke-linejoin="bevel"/>
<path d="M49.6641 29.1877H54.6169L56.2184 23.217H49.6641V29.1877Z" stroke="#364B37" stroke-linejoin="bevel"/>
<path d="M49.6644 17.9115C48.755 17.4075 47.8121 16.9558 46.8336 16.5668L45.4099 16.0021H40.1602L49.6644 23.2171V17.9136V17.9115Z" stroke="#364B37" stroke-linejoin="bevel"/>
<path d="M56.2142 23.2171C55.7166 22.6462 55.1918 22.0941 54.6462 21.5692C53.1597 20.1492 51.483 18.9216 49.6641 17.9115V23.215H56.2142V23.2171Z" stroke="#364B37" stroke-linejoin="bevel"/>
<path d="M49.6641 39.4289L54.5333 29.1857H49.6641V39.4289Z" stroke="#364B37" stroke-linejoin="bevel"/>
<path d="M49.6644 29.1877V23.217L40.1602 29.1877H49.6644Z" stroke="#364B37" stroke-linejoin="bevel"/>
<path d="M59.9607 29.1877V29.102C59.0053 26.9521 57.7383 24.9737 56.2184 23.2191L54.6211 29.1856H59.9628V29.1898L59.9607 29.1877Z" stroke="#364B37" stroke-linejoin="bevel"/>
<path d="M25.5479 29.1877L30.5488 39.546V29.1877H25.5479Z" stroke="#364B37" stroke-linejoin="bevel"/>
<path d="M25.5483 49.8165L25.542 49.8457H30.5492V39.546L25.5483 49.8165Z" stroke="#364B37" stroke-linejoin="bevel"/>
<path d="M56.2186 55.785C57.7386 54.0304 59.0076 52.0521 59.9589 49.9022V49.8436H54.6172L56.2145 55.785H56.2186Z" stroke="#364B37" stroke-linejoin="bevel"/>
<path d="M49.6644 55.785L40.1602 63H45.4099L46.8336 62.4354C47.81 62.0464 48.755 61.5947 49.6644 61.0907V55.7871V55.785Z" stroke="#364B37" stroke-linejoin="bevel"/>
<path d="M30.549 55.785V61.2057C31.3915 61.6616 32.2633 62.0757 33.1623 62.4312L34.5819 62.9959H40.1578L30.5469 55.7809V55.785H30.549Z" stroke="#364B37" stroke-linejoin="bevel"/>
<path d="M23.7793 55.785C24.2748 56.356 24.7975 56.9081 25.3473 57.433C26.8965 58.9074 28.6464 60.1768 30.5489 61.2099V55.7892H23.7793V55.785Z" stroke="#364B37" stroke-linejoin="bevel"/>
<path d="M20.0371 49.8436V49.9022C20.9926 52.0521 22.2595 54.0304 23.7794 55.785L25.5398 49.8436H20.0371Z" stroke="#364B37" stroke-linejoin="bevel"/>
<path d="M30.5489 55.785V49.8436H25.5397L23.7793 55.785H30.5489Z" stroke="#364B37" stroke-linejoin="bevel"/>
<path d="M54.6168 29.1877H54.5332L59.9585 39.5021V29.1877H54.6168Z" stroke="#364B37" stroke-linejoin="bevel"/>
<path d="M25.5482 49.8164L20.0371 39.5021V49.8457H25.5398L25.5482 49.8164Z" stroke="#364B37" stroke-linejoin="bevel"/>
<path d="M49.6641 39.6589V49.8436H59.9586V39.5L54.5333 49.8143L49.6641 39.6589Z" stroke="#364B37" stroke-linejoin="bevel"/>
<path d="M49.6641 61.0886C51.485 60.0785 53.1618 58.8509 54.6462 57.4309C55.196 56.906 55.7187 56.356 56.2142 55.783H49.6641V61.0865V61.0886Z" stroke="#364B37" stroke-linejoin="bevel"/>
<path d="M49.6641 49.8436V55.785H56.2184L54.6169 49.8436H49.6641Z" stroke="#364B37" stroke-linejoin="bevel"/>
<path d="M30.5489 29.1877V23.217H23.7793L25.548 29.1877H30.5489Z" stroke="#364B37" stroke-linejoin="bevel"/>
<path d="M30.5489 17.7943C28.6443 18.8253 26.8944 20.0927 25.3473 21.5712C24.7975 22.0961 24.2769 22.6461 23.7793 23.2192H30.5489V17.7964V17.7943Z" stroke="#364B37" stroke-linejoin="bevel"/>
<path d="M20.0371 29.1877V39.5021L25.5482 29.1877H20.0371Z" stroke="#364B37" stroke-linejoin="bevel"/>
<path d="M23.7794 23.2171C22.2595 24.9717 20.9926 26.9501 20.0371 29.0999V29.1857H25.5482L23.7794 23.2192V23.215V23.2171Z" stroke="#364B37" stroke-linejoin="bevel"/>
<path d="M40.1597 29.1877H30.5488V49.8457H40.1158L40.1597 49.8164L40.2078 49.8457H49.6661V39.661L49.6096 39.546L49.6661 39.431V29.1877H40.1618H40.1597Z" stroke="#364B37" stroke-linejoin="bevel"/>
<path d="M30.5488 23.217L40.1597 29.1877L49.664 23.217" stroke="#364B37" stroke-linejoin="bevel"/>
<path d="M49.664 23.2171L40.1597 16.0021L30.5488 23.2171" stroke="#364B37" stroke-linejoin="bevel"/>
<path d="M49.6641 55.785L40.2058 49.8436H40.1139L30.5469 55.785" stroke="#364B37" stroke-linejoin="bevel"/>
<path d="M30.5488 55.785L40.1597 63L49.664 55.785" stroke="#364B37" stroke-linejoin="bevel"/>
<path d="M40.1601 49.8143L40.1162 49.8436H40.2082L40.1601 49.8143Z" stroke="#364B37" stroke-linejoin="bevel"/>
<path d="M30.5491 39.5439L25.5482 29.1857L20.0371 39.5L25.5482 49.8144L30.5491 39.5439Z" stroke="#364B37" stroke-linejoin="bevel"/>
<path d="M49.6641 39.4289V39.659L54.5333 49.8144L59.9586 39.5L54.5333 29.1857L49.6641 39.4289Z" stroke="#364B37" stroke-linejoin="bevel"/>
<path d="M49.6637 39.659V39.429L49.6094 39.544L49.6637 39.659Z" stroke="#364B37" stroke-linejoin="bevel"/>
<path d="M15.2789 94.192C12.0469 94.192 9.66287 91.648 9.66287 88.432V88.4C9.66287 85.232 12.0309 82.608 15.3269 82.608C17.3589 82.608 18.5749 83.328 19.6949 84.384L18.8309 85.312C17.8869 84.416 16.8309 83.776 15.3109 83.776C12.8309 83.776 10.9749 85.792 10.9749 88.368V88.4C10.9749 90.992 12.8469 93.024 15.3109 93.024C16.8469 93.024 17.8549 92.432 18.9269 91.408L19.7589 92.224C18.5909 93.408 17.3109 94.192 15.2789 94.192ZM24.6274 94.176C22.6274 94.176 21.4594 92.832 21.4594 90.864V85.728H22.6914V90.56C22.6914 92.096 23.5234 93.056 24.9794 93.056C26.3874 93.056 27.4594 92.016 27.4594 90.464V85.728H28.6754V94H27.4594V92.56C26.8994 93.456 26.0514 94.176 24.6274 94.176ZM34.0068 94.16C32.8228 94.16 31.5108 93.696 30.5828 92.944L31.2068 92.064C32.1028 92.736 33.0948 93.12 34.0708 93.12C35.0628 93.12 35.7828 92.608 35.7828 91.808V91.776C35.7828 90.944 34.8068 90.624 33.7188 90.32C32.4228 89.952 30.9828 89.504 30.9828 87.984V87.952C30.9828 86.528 32.1668 85.584 33.7988 85.584C34.8068 85.584 35.9268 85.936 36.7748 86.496L36.2148 87.424C35.4468 86.928 34.5668 86.624 33.7668 86.624C32.7908 86.624 32.1668 87.136 32.1668 87.824V87.856C32.1668 88.64 33.1908 88.944 34.2948 89.28C35.5748 89.664 36.9508 90.16 36.9508 91.648V91.68C36.9508 93.248 35.6548 94.16 34.0068 94.16ZM39.0635 94V82.32H40.2955V87.168C40.8395 86.272 41.7035 85.552 43.1275 85.552C45.1275 85.552 46.2955 86.896 46.2955 88.864V94H45.0635V89.168C45.0635 87.632 44.2315 86.672 42.7755 86.672C41.3515 86.672 40.2955 87.712 40.2955 89.264V94H39.0635ZM48.7789 83.92V82.56H50.1869V83.92H48.7789ZM48.8589 94V85.728H50.0909V94H48.8589ZM56.55 94.192C54.07 94.192 52.262 92.24 52.262 89.904V89.872C52.262 87.536 54.086 85.552 56.582 85.552C59.062 85.552 60.886 87.504 60.886 89.84V89.872C60.886 92.208 59.046 94.192 56.55 94.192ZM56.582 93.088C58.374 93.088 59.622 91.648 59.622 89.904V89.872C59.622 88.096 58.294 86.64 56.55 86.64C54.758 86.64 53.526 88.096 53.526 89.84V89.872C53.526 91.648 54.838 93.088 56.582 93.088ZM62.9418 94V85.728H64.1738V87.168C64.7178 86.272 65.5818 85.552 67.0058 85.552C69.0058 85.552 70.1738 86.896 70.1738 88.864V94H68.9418V89.168C68.9418 87.632 68.1098 86.672 66.6538 86.672C65.2298 86.672 64.1738 87.712 64.1738 89.264V94H62.9418Z" fill="#766C63"/>
</svg>
