<svg width="80" height="117" viewBox="0 0 80 117" fill="none" xmlns="http://www.w3.org/2000/svg">
<path d="M27.7721 19.4972H52.2258L59.9584 25.7998L59.9979 53.2148L52.2341 59.4945L27.7763 59.5028L20.0436 53.2023L20 25.7749L27.77 19.4951L27.7721 19.4972Z" stroke="#364B37" stroke-linejoin="bevel"/>
<path d="M30.945 24.4234L49.0273 24.415L54.8445 29.0029L54.886 50.0157L49.0107 54.5848H30.9512L25.1569 49.999L25.1133 28.978L30.945 24.4234Z" stroke="#364B37" stroke-linejoin="bevel"/>
<path d="M30.9453 30.1261V48.874L40 50.8981L49.0298 48.8678V30.1261L39.9834 27.7886L30.9474 30.1261H30.9453Z" stroke="#364B37" stroke-linejoin="bevel"/>
<path d="M25.1133 28.98L30.945 38.3073L25.1569 50.0011L25.1133 28.98Z" stroke="#364B37" stroke-linejoin="bevel"/>
<path d="M54.8445 29.0031L49.0273 38.3531L54.886 50.0137L54.8424 29.001L54.8445 29.0031Z" stroke="#364B37" stroke-linejoin="bevel"/>
<path d="M30.9453 24.4234L39.9813 27.7885L49.0277 24.415L30.9453 24.4234Z" stroke="#364B37" stroke-linejoin="bevel"/>
<path d="M20.0039 25.7771L25.1155 28.9782L30.9471 24.4235L27.774 19.4973L20.0039 25.7771Z" stroke="#364B37" stroke-linejoin="bevel"/>
<path d="M49.0273 24.4151L54.8445 29.003L59.9581 25.8019L52.2254 19.4993L49.0273 24.4172V24.4151Z" stroke="#364B37" stroke-linejoin="bevel"/>
<path d="M30.945 30.126V24.4233L25.1133 28.978L30.945 30.126Z" stroke="#364B37" stroke-linejoin="bevel"/>
<path d="M49.0273 24.415V30.126L54.8445 29.0029L49.0273 24.415Z" stroke="#364B37" stroke-linejoin="bevel"/>
<path d="M49.055 54.5724L40.019 51.2114L30.9727 54.5848L49.055 54.5724Z" stroke="#364B37" stroke-linejoin="bevel"/>
<path d="M59.9999 53.2167L54.8883 50.0156L49.0566 54.5723L52.236 59.4944L59.9999 53.2146V53.2167Z" stroke="#364B37" stroke-linejoin="bevel"/>
<path d="M30.9746 54.5848L25.1574 49.999L20.0459 53.2043L27.7786 59.5048L30.9746 54.5848Z" stroke="#364B37" stroke-linejoin="bevel"/>
<path d="M49.0566 48.8677V54.5724L54.8883 50.0157L49.0566 48.8677Z" stroke="#364B37" stroke-linejoin="bevel"/>
<path d="M30.9724 54.585V48.874L25.1553 50.0012L30.9724 54.587V54.585Z" stroke="#364B37" stroke-linejoin="bevel"/>
<path d="M11.487 94V82.8H16.303C17.679 82.8 18.783 83.216 19.487 83.92C20.031 84.464 20.351 85.248 20.351 86.128V86.16C20.351 88.016 19.071 89.104 17.311 89.424L20.751 94H19.199L15.951 89.648H12.751V94H11.487ZM12.751 88.512H16.191C17.871 88.512 19.071 87.648 19.071 86.208V86.176C19.071 84.8 18.015 83.968 16.207 83.968H12.751V88.512ZM25.1295 94.176C23.5935 94.176 22.0415 93.296 22.0415 91.6V91.568C22.0415 89.824 23.4815 88.896 25.5775 88.896C26.6335 88.896 27.3855 89.04 28.1215 89.248V88.96C28.1215 87.472 27.2095 86.704 25.6575 86.704C24.6815 86.704 23.9135 86.96 23.1455 87.312L22.7775 86.304C23.6895 85.888 24.5855 85.616 25.7855 85.616C26.9535 85.616 27.8495 85.92 28.4575 86.528C29.0175 87.088 29.3055 87.888 29.3055 88.944V94H28.1215V92.752C27.5455 93.504 26.5855 94.176 25.1295 94.176ZM25.3695 93.2C26.8895 93.2 28.1375 92.272 28.1375 90.96V90.16C27.5295 89.984 26.7135 89.808 25.7055 89.808C24.1535 89.808 23.2895 90.48 23.2895 91.52V91.552C23.2895 92.592 24.2495 93.2 25.3695 93.2ZM35.2271 94.176C33.2431 94.176 31.2751 92.608 31.2751 89.888V89.856C31.2751 87.152 33.2431 85.552 35.2271 85.552C36.7631 85.552 37.7551 86.384 38.3951 87.312V82.32H39.6271V94H38.3951V92.336C37.7231 93.328 36.7471 94.176 35.2271 94.176ZM35.4511 93.072C36.9871 93.072 38.4431 91.776 38.4431 89.872V89.84C38.4431 87.936 36.9871 86.656 35.4511 86.656C33.8511 86.656 32.5391 87.84 32.5391 89.84V89.872C32.5391 91.824 33.8991 93.072 35.4511 93.072ZM42.2361 83.92V82.56H43.6441V83.92H42.2361ZM42.3161 94V85.728H43.5481V94H42.3161ZM48.6953 94.176C47.1593 94.176 45.6073 93.296 45.6073 91.6V91.568C45.6073 89.824 47.0473 88.896 49.1433 88.896C50.1993 88.896 50.9513 89.04 51.6873 89.248V88.96C51.6873 87.472 50.7753 86.704 49.2233 86.704C48.2473 86.704 47.4793 86.96 46.7113 87.312L46.3433 86.304C47.2553 85.888 48.1513 85.616 49.3513 85.616C50.5193 85.616 51.4153 85.92 52.0233 86.528C52.5833 87.088 52.8713 87.888 52.8713 88.944V94H51.6873V92.752C51.1113 93.504 50.1513 94.176 48.6953 94.176ZM48.9353 93.2C50.4553 93.2 51.7033 92.272 51.7033 90.96V90.16C51.0953 89.984 50.2793 89.808 49.2713 89.808C47.7193 89.808 46.8553 90.48 46.8553 91.52V91.552C46.8553 92.592 47.8153 93.2 48.9353 93.2ZM55.3209 94V85.728H56.5529V87.168C57.0969 86.272 57.9609 85.552 59.3849 85.552C61.3849 85.552 62.5529 86.896 62.5529 88.864V94H61.3209V89.168C61.3209 87.632 60.4889 86.672 59.0329 86.672C57.6089 86.672 56.5529 87.712 56.5529 89.264V94H55.3209ZM67.7723 94.144C66.4443 94.144 65.4363 93.488 65.4363 91.808V86.816H64.2843V85.728H65.4363V83.232H66.6683V85.728H69.2923V86.816H66.6683V91.648C66.6683 92.656 67.2283 93.024 68.0603 93.024C68.4763 93.024 68.8283 92.944 69.2603 92.736V93.792C68.8283 94.016 68.3643 94.144 67.7723 94.144Z" fill="#766C63"/>
</svg>
