<svg width="80" height="117" viewBox="0 0 80 117" fill="none" xmlns="http://www.w3.org/2000/svg">
<path d="M30.2674 16.0039L49.7836 16L57.2478 22.9807V56.0193L49.7836 63H30.2674L22.7529 55.9728V23.031L30.2674 16.0039Z" stroke="#364B37" stroke-miterlimit="10"/>
<path d="M32.0779 19.5464H47.9849L53.8881 25.5849L53.892 53.4208L47.8456 59.2426H32.192L26.2597 53.4208L26.0566 25.5849L32.0798 19.5464H32.0779Z" stroke="#364B37" stroke-miterlimit="10"/>
<path d="M33.7511 22.9769L46.252 22.8608L50.9869 27.8293L50.9676 51.1513L46.2848 56.2031H33.7453L28.9697 51.1707L29.0007 27.8545L33.753 22.9749L33.7511 22.9769Z" stroke="#364B37" stroke-miterlimit="10"/>
<path d="M35.1726 25.583L44.8495 25.5792L48.5515 29.7138V49.2862L44.8495 53.4208H35.1726L31.4473 49.261V29.7467L35.1726 25.5869V25.583Z" stroke="#364B37" stroke-miterlimit="10"/>
<path d="M31.4472 29.7448L22.7529 23.0311" stroke="#364B37" stroke-miterlimit="10"/>
<path d="M48.5518 29.7138L57.2461 22.9807" stroke="#364B37" stroke-miterlimit="10"/>
<path d="M44.8496 25.5811L49.7819 16.002" stroke="#364B37" stroke-miterlimit="10"/>
<path d="M35.1728 25.583L30.2676 16.0038" stroke="#364B37" stroke-miterlimit="10"/>
<path d="M31.4472 49.2591L22.7529 55.9728" stroke="#364B37" stroke-miterlimit="10"/>
<path d="M35.1728 53.4189L30.2676 62.998" stroke="#364B37" stroke-miterlimit="10"/>
<path d="M44.8496 53.4189L49.7819 62.998" stroke="#364B37" stroke-miterlimit="10"/>
<path d="M48.5518 49.2862L57.2461 56.0193" stroke="#364B37" stroke-miterlimit="10"/>
<path d="M9.32294 94V82.8H17.4189V83.952H10.5869V87.776H16.6989V88.928H10.5869V92.848H17.4989V94H9.32294ZM19.6577 94V85.728H20.8897V87.12C21.4337 86.304 22.1697 85.552 23.5617 85.552C24.9057 85.552 25.7697 86.272 26.2177 87.2C26.8097 86.288 27.6897 85.552 29.1297 85.552C31.0337 85.552 32.2017 86.832 32.2017 88.88V94H30.9697V89.168C30.9697 87.568 30.1697 86.672 28.8257 86.672C27.5777 86.672 26.5537 87.6 26.5537 89.232V94H25.3217V89.136C25.3217 87.584 24.5057 86.672 23.1937 86.672C21.8817 86.672 20.8897 87.76 20.8897 89.28V94H19.6577ZM38.3164 94.192C36.0444 94.192 34.1884 92.448 34.1884 89.888V89.856C34.1884 87.472 35.8684 85.552 38.1564 85.552C40.6044 85.552 42.0124 87.504 42.0124 89.92C42.0124 90.08 42.0124 90.176 41.9964 90.32H35.4364C35.6124 92.112 36.8764 93.12 38.3484 93.12C39.4844 93.12 40.2844 92.656 40.9564 91.952L41.7244 92.64C40.8924 93.568 39.8844 94.192 38.3164 94.192ZM35.4364 89.408H40.7644C40.6364 87.904 39.7724 86.592 38.1244 86.592C36.6844 86.592 35.5964 87.792 35.4364 89.408ZM43.9932 94V85.728H45.2252V87.888C45.8332 86.512 47.0332 85.52 48.6012 85.584V86.912H48.5052C46.6972 86.912 45.2252 88.208 45.2252 90.704V94H43.9932ZM52.3593 94.176C50.8233 94.176 49.2713 93.296 49.2713 91.6V91.568C49.2713 89.824 50.7113 88.896 52.8073 88.896C53.8633 88.896 54.6153 89.04 55.3513 89.248V88.96C55.3513 87.472 54.4393 86.704 52.8873 86.704C51.9113 86.704 51.1433 86.96 50.3753 87.312L50.0073 86.304C50.9193 85.888 51.8153 85.616 53.0153 85.616C54.1833 85.616 55.0793 85.92 55.6873 86.528C56.2473 87.088 56.5353 87.888 56.5353 88.944V94H55.3513V92.752C54.7753 93.504 53.8153 94.176 52.3593 94.176ZM52.5993 93.2C54.1193 93.2 55.3673 92.272 55.3673 90.96V90.16C54.7593 89.984 53.9433 89.808 52.9353 89.808C51.3833 89.808 50.5193 90.48 50.5193 91.52V91.552C50.5193 92.592 51.4793 93.2 52.5993 93.2ZM59.0969 94V82.32H60.3289V94H59.0969ZM66.4841 94.176C64.5001 94.176 62.5321 92.608 62.5321 89.888V89.856C62.5321 87.152 64.5001 85.552 66.4841 85.552C68.0201 85.552 69.0121 86.384 69.6521 87.312V82.32H70.8841V94H69.6521V92.336C68.9801 93.328 68.0041 94.176 66.4841 94.176ZM66.7081 93.072C68.2441 93.072 69.7001 91.776 69.7001 89.872V89.84C69.7001 87.936 68.2441 86.656 66.7081 86.656C65.1081 86.656 63.7961 87.84 63.7961 89.84V89.872C63.7961 91.824 65.1561 93.072 66.7081 93.072Z" fill="#766C63"/>
</svg>
