<svg width="98" height="135" viewBox="0 0 98 135" fill="none" xmlns="http://www.w3.org/2000/svg">
<path d="M7.35814 27.2766L0 21.5918V112.75L7.93714 106.621L7.35814 27.2766Z" fill="black"/>
<path d="M10.1737 104.895L15.8174 100.537L15.9017 33.8722L9.61719 29.0197L10.1737 104.895Z" fill="black"/>
<path d="M18.0664 98.7996L23.0187 94.976V39.3658L18.1507 35.6097L18.0664 98.7996Z" fill="black"/>
<path d="M24.6081 8.95726L20.3921 0.725357L0.605469 19.2246L8.37964 25.2242L24.6081 8.95726Z" fill="black"/>
<path d="M8.72252 108.859L0.605469 115.123L20.3922 133.622L24.9284 124.76L8.72252 108.859Z" fill="black"/>
<path d="M29.4611 115.916L16.8246 102.601L10.5176 107.47L26.004 122.669L29.4611 115.916Z" fill="black"/>
<path d="M10.1797 26.6131L16.9251 31.8255L29.6347 18.7748L25.6886 11.0658L10.1797 26.6131Z" fill="black"/>
<path d="M33.62 107.796L24.002 97.0565L18.6113 101.217L30.5451 113.796L33.62 107.796Z" fill="black"/>
<path d="M18.7188 33.2087L24.0026 37.2853L33.6206 26.5456L30.72 20.8834L18.7188 33.2087Z" fill="black"/>
<path d="M35.6614 25.6009L62.4126 25.5897L65.3132 19.9556L32.9238 20.2536L35.6614 25.6009Z" fill="black"/>
<path d="M62.4135 108.746H35.6622L32.666 114.594H65.4208L62.4135 108.746Z" fill="black"/>
<path d="M66.5787 116.843H31.5136L28.1465 123.417H69.9682L66.5787 116.843Z" fill="black"/>
<path d="M31.7759 18.0157L66.4756 17.6952L70.2812 10.3011H27.8242L31.7759 18.0157Z" fill="black"/>
<path d="M35.4701 27.8501L25.2676 39.2477V95.0997L35.4701 106.497H62.5924L72.7274 95.1785V39.1577L62.5924 27.8389L35.4701 27.8501Z" fill="black"/>
<path d="M26.9915 125.666L22.5508 134.336H75.5868L71.1236 125.666H26.9915Z" fill="black"/>
<path d="M71.4384 8.05196L75.5868 0L22.5508 0.0112482L26.6711 8.05196H71.4384Z" fill="black"/>
<path d="M79.2086 101.172L73.9921 97.1352L64.4473 107.796L67.5277 113.773L79.2086 101.172Z" fill="black"/>
<path d="M79.2535 33.1244L67.4433 20.7316L64.4473 26.5456L73.9921 37.2009L79.2535 33.1244Z" fill="black"/>
<path d="M79.8032 35.5422L74.9746 39.2814V95.0547L79.747 98.749L79.8032 35.5422Z" fill="black"/>
<path d="M87.6565 107.717L80.9897 102.556L68.623 115.904L72.1139 122.68L87.6565 107.717Z" fill="black"/>
<path d="M87.6734 26.6074L72.4399 11.0208L68.5332 18.6117L81.0404 31.7411L87.6734 26.6074Z" fill="black"/>
<path d="M88.2412 29.0084L82.0523 33.8047L81.9961 100.492L88.2469 105.333L88.2412 29.0084Z" fill="black"/>
<path d="M89.4615 25.2186L97.3874 19.0784L77.7469 0.714096L73.5254 8.91787L89.4615 25.2186Z" fill="black"/>
<path d="M73.1875 124.766L77.752 133.622L97.3924 115.258L89.4497 109.106L73.1875 124.766Z" fill="black"/>
<path d="M90.4902 27.2709L90.4959 107.076L98.0002 112.885V21.4513L90.4902 27.2709Z" fill="black"/>
</svg>
