<svg width="98" height="96" viewBox="0 0 98 96" fill="none" xmlns="http://www.w3.org/2000/svg">
<path d="M0.2077 20.2934C0.178697 20.5738 0.149737 20.8543 0.130402 21.1444C-0.609165 30.6069 1.80769 40.0984 7.11034 48.5842C7.97558 49.9719 8.88432 51.3693 9.81724 52.7763L15.4099 36.6122L0.2077 20.2934Z" fill="black"/>
<path d="M16.1594 34.5814C17.2808 31.9704 20.2052 26.6275 26.3828 23.2622V19.1039H1.74023L16.1594 34.5814Z" fill="black"/>
<path d="M17.5957 36.1722L26.3835 46.7807V25.4429C20.4477 29.0258 18.1709 34.5185 17.5957 36.1722Z" fill="black"/>
<path d="M11.457 53.9609H26.3837V49.8123L16.8661 38.319L11.457 53.9609Z" fill="black"/>
<path d="M22.3997 69.7527H26.3828V55.895H11.9395C15.1732 60.5562 18.7212 65.2463 22.3997 69.7527Z" fill="black"/>
<path d="M26.382 74.5106V71.6868H23.9941C24.7869 72.6393 25.5796 73.5774 26.382 74.5106Z" fill="black"/>
<path d="M28.3164 53.9609H30.5158L28.3164 51.7851V53.9609Z" fill="black"/>
<path d="M28.3164 22.3242C29.7375 21.7149 31.3182 21.2169 33.0535 20.8591L28.3164 19.4376V22.3242Z" fill="black"/>
<path d="M25.097 0.691402C23.4342 0.227222 21.7472 0 20.0796 0C14.6754 0 9.45977 2.37403 5.94079 6.65319C3.11786 10.091 1.50338 13.2629 0.681641 17.1698H26.8614L36.2244 4.31781C32.6135 3.03164 28.6933 1.7068 25.097 0.691402Z" fill="black"/>
<path d="M28.3164 69.7527H36.7997V58.6317L32.5846 55.895H28.3164V69.7527Z" fill="black"/>
<path d="M28.3164 71.6868V76.7251C34.6631 83.9199 41.0921 90.2733 46.7089 94.7749L37.1187 71.6868H28.3164Z" fill="black"/>
<path d="M38.7324 59.8841V69.1919L47.0368 65.2657L38.7324 59.8841Z" fill="black"/>
<path d="M37.6344 20.216L47.4228 14.4669L37.8567 5.35742L28.9336 17.605L37.6344 20.216Z" fill="black"/>
<path d="M56.4387 6.2229C55.9456 6.4018 55.467 6.58069 55.003 6.74992C53.2 7.41235 51.6484 7.98776 50.4448 8.40358C49.4925 8.73721 48.4774 8.73716 47.5155 8.41321C46.1814 7.9587 44.388 7.29626 42.3095 6.5323C42.0871 6.4501 41.86 6.36795 41.6328 6.28092L49.0188 13.3113L56.4387 6.2229Z" fill="black"/>
<path d="M39.7871 21.2024L49.0003 25.8393L58.2473 21.1976L49.0196 15.7725L39.7871 21.2024Z" fill="black"/>
<path d="M49.0185 66.4696L39.0078 71.2032L48.9847 95.2101L59.0196 71.1985L49.0185 66.4696Z" fill="black"/>
<path d="M59.3063 59.8792L51.002 65.2656L59.3063 69.1967V59.8792Z" fill="black"/>
<path d="M68.9284 17.6049L60.1309 5.36707L50.6133 14.4669L60.392 20.2208L68.9284 17.6049Z" fill="black"/>
<path d="M69.5333 53.961V51.9689L67.5176 53.961H69.5333Z" fill="black"/>
<path d="M61.2383 58.6269V69.7527H69.533V55.895H65.4485L61.2383 58.6269Z" fill="black"/>
<path d="M51.2715 94.7604C56.869 90.2685 63.2447 83.9827 69.5335 76.8895V71.6868H60.9101L51.2715 94.7604Z" fill="black"/>
<path d="M69.5393 22.2516V19.4424L64.9375 20.8494C66.6148 21.1927 68.1471 21.6665 69.5393 22.2516Z" fill="black"/>
<path d="M49.4303 27.788H48.5651L37.5634 22.2468C33.8752 22.4209 30.8203 23.2381 28.3164 24.4082V49.0678L33.4837 54.1786L49.0194 64.2455L64.5552 54.1737L69.5388 49.0629V24.3308C67.0639 23.1994 64.0718 22.4161 60.4707 22.2468L49.4303 27.788Z" fill="black"/>
<path d="M71.4668 74.6798C72.3224 73.6982 73.1683 72.6973 74.0094 71.6868H71.4668V74.6798Z" fill="black"/>
<path d="M71.6562 25.4429V46.5824L80.4296 36.1384C79.8398 34.4509 77.5534 29.0016 71.6562 25.4429Z" fill="black"/>
<path d="M71.4668 69.7527H75.6093C79.3023 65.2366 82.86 60.5465 86.0938 55.895H71.4668V69.7527Z" fill="black"/>
<path d="M71.5538 49.706L71.4668 49.9139V53.961H86.5772L81.1343 38.3046L71.5538 49.706Z" fill="black"/>
<path d="M96.294 19.1039H71.6562V23.2622C77.829 26.6275 80.7534 31.9704 81.8748 34.5814L96.294 19.1039Z" fill="black"/>
<path d="M92.0742 6.65805C87.5063 1.07822 80.0091 -1.26684 72.976 0.686581C69.3361 1.69714 65.4014 3.01231 61.752 4.30331L70.999 17.1698H97.3188C96.5019 13.2678 94.8874 10.0959 92.0742 6.65805Z" fill="black"/>
<path d="M97.8685 21.1444C97.8444 20.8688 97.8202 20.598 97.7912 20.332L82.6035 36.6363L88.2155 52.7811C89.1436 51.3837 90.0475 49.996 90.9031 48.618C96.2009 40.1467 98.6081 30.6456 97.8685 21.1444Z" fill="black"/>
</svg>
