<svg width="98" height="148" viewBox="0 0 98 148" fill="none" xmlns="http://www.w3.org/2000/svg">
<path d="M3.99627 44.7317C2.12214 51.3055 0.899618 58.1959 0.353516 65.2788L15.2659 47.55L3.99627 44.7317Z" fill="black"/>
<path d="M12.0631 25.3703C9.09676 30.5102 6.6269 36.2025 4.70312 42.3418L15.9168 45.1414L12.0631 25.3703Z" fill="black"/>
<path d="M0.0310589 71.5421C0.0124417 72.3988 0 73.2057 0 73.9817C0 82.3991 0.943268 90.6676 2.79257 98.5884L15.9797 82.9951L0.0310589 71.5421Z" fill="black"/>
<path d="M3.53125 101.587C5.57293 109.247 8.41516 116.261 12.0021 122.488L16.0854 86.7258L3.53125 101.587Z" fill="black"/>
<path d="M0.583984 68.8791L17.5876 81.0893L27.8518 68.9473L17.2836 49.0397L0.583984 68.8791Z" fill="black"/>
<path d="M25.357 9.14377C21.5964 12.291 18.1273 16.1769 15.0059 20.7208H34.3676L25.357 9.14377Z" fill="black"/>
<path d="M15.166 127.491C18.3309 132.047 21.8744 135.939 25.6785 139.068L34.6085 127.491H15.166Z" fill="black"/>
<path d="M34.9379 97.3345L28.7135 71.7718L19.498 82.6785L27.913 90.6676L34.9379 97.3345Z" fill="black"/>
<path d="M35.3657 44.7441L19.3984 47.7362L29.0235 65.856L35.3657 44.7441Z" fill="black"/>
<path d="M35.8996 101.674L26.0883 92.3561L18.747 85.3974L14.2168 125.008H35.8996V101.674Z" fill="black"/>
<path d="M35.9072 42.1121V23.2163H14.1934L18.5064 45.371L35.9072 42.1121Z" fill="black"/>
<path d="M44.222 33.3656L38.3887 25.8731V41.1313L43.6138 38.5117L46.9277 36.8481L44.222 33.3656Z" fill="black"/>
<path d="M27.7891 140.403C28.2297 140.738 28.6765 141.048 29.1233 141.365C32.8467 143.972 36.6943 145.834 40.6039 146.933C41.0321 147.051 41.454 147.169 41.8822 147.274C43.5453 147.647 45.2333 147.883 46.9337 147.994L36.9363 128.546L27.7891 140.403Z" fill="black"/>
<path d="M46.935 0C46.6371 0.0186227 46.333 0.0310545 46.0352 0.0558847C46.0289 0.0558847 46.0227 0.0620983 46.0165 0.0620983C45.6318 0.0931361 45.2408 0.142772 44.8498 0.192433C44.7133 0.211055 44.583 0.223481 44.4465 0.242104C44.3472 0.254519 44.2479 0.273146 44.1486 0.285561C38.3028 1.17945 32.5749 3.65007 27.3125 7.59187L36.8383 19.8332L46.935 0Z" fill="black"/>
<path d="M47.4738 110.817L38.3887 103.691V122.587L47.4738 110.817Z" fill="black"/>
<path d="M38.5254 21.9996L48.8269 35.2465L59.271 21.6023L49.0006 1.41534L39.5183 20.038L38.5254 21.9996Z" fill="black"/>
<path d="M49.2048 112.636L38.6055 126.373L49 146.585L59.5622 126.044L49.2048 112.636Z" fill="black"/>
<path d="M59.6049 103.859L50.9355 110.805L59.6049 122.034V103.859Z" fill="black"/>
<path d="M59.6125 25.2462L50.7383 36.8357L58.1913 40.5292L59.6125 41.2306V25.2462Z" fill="black"/>
<path d="M67.5444 69.1398L59.8244 44.1048L48.8403 38.6669L46.7677 39.7036L38.1789 44.0116L30.6328 69.1336L38.2472 100.42L49.194 109.011L59.75 100.562L67.5444 69.1398Z" fill="black"/>
<path d="M70.149 7.39322C67.6108 5.49371 64.9982 3.9294 62.367 2.73755L62.3174 2.7127C62.3174 2.7127 62.2987 2.70652 62.2925 2.70652L61.9575 2.56372C61.9016 2.5451 61.852 2.52028 61.7961 2.49545C61.5541 2.39613 61.312 2.29682 61.0638 2.1975C61.0204 2.17888 60.9769 2.16024 60.9273 2.14161H60.9211C57.7065 0.924934 54.3989 0.211057 51.0664 0L60.9459 19.411L70.149 7.39322Z" fill="black"/>
<path d="M51.0664 147.994C57.9113 147.572 64.4894 145.021 70.6517 140.409L61.2376 128.223L51.0664 147.994Z" fill="black"/>
<path d="M78.1173 47.7361L62.6465 44.831L69.1004 65.7629L78.1173 47.7361Z" fill="black"/>
<path d="M69.4487 71.7718L63.0879 97.4338L78.5897 82.6599L69.4487 71.7718Z" fill="black"/>
<path d="M72.5936 138.857C76.317 135.753 79.7488 131.942 82.8206 127.491H63.8125L72.5936 138.857Z" fill="black"/>
<path d="M83.0007 20.7209C79.7738 16.0031 76.1373 11.993 72.2091 8.78995L63.0742 20.7209H83.0007Z" fill="black"/>
<path d="M62.84 101.103L62.1016 101.804V125.008H83.7781L79.3348 85.385L62.84 101.103Z" fill="black"/>
<path d="M62.1016 42.199L79.0183 45.3773L83.7905 23.2039H62.1016V42.199Z" fill="black"/>
<path d="M93.2847 42.3356C91.3485 36.1715 88.8662 30.4605 85.8812 25.302L81.6055 45.1476L93.2847 42.3356Z" fill="black"/>
<path d="M85.9992 122.469C89.5737 116.255 92.4097 109.247 94.4576 101.568L81.9902 86.7134L85.9992 122.469Z" fill="black"/>
<path d="M97.4051 68.8791L80.2462 49.0459L70.3047 68.9288L80.4945 81.0707L97.4051 68.8791Z" fill="black"/>
<path d="M97.6607 65.3657C97.1084 58.2456 95.8859 51.318 94.0056 44.7255L82.252 47.5562L97.6607 65.3657Z" fill="black"/>
<path d="M97.9692 71.5421L82.1074 82.9826L95.2077 98.5947C97.0632 90.68 98.0002 82.4115 98.0002 73.9817C98.0002 73.2057 97.9878 72.405 97.9692 71.5421Z" fill="black"/>
</svg>
