<svg width="98" height="140" viewBox="0 0 98 140" fill="none" xmlns="http://www.w3.org/2000/svg">
<path d="M2.6187 30.3712C0.870936 35.4967 -0.00593482 41.1711 3.02285e-05 47.4004L13.9165 33.8617L2.6187 30.3712Z" fill="black"/>
<path d="M0.310547 53.8327C0.841436 59.7697 2.08814 66.1483 4.05065 72.9624L14.0599 70.4205L0.310547 53.8327Z" fill="black"/>
<path d="M11.9295 15.108C8.25508 18.9029 5.42766 23.2409 3.44727 28.1277L14.6914 31.6003L11.9295 15.108Z" fill="black"/>
<path d="M4.73047 75.2536C6.71683 81.656 9.37134 87.8556 12.4016 93.7269L14.8054 72.6938L4.73047 75.2536Z" fill="black"/>
<path d="M0.458984 50.2765L15.9442 68.9527L23.2932 54.3518L15.7414 35.4131L0.458984 50.2765Z" fill="black"/>
<path d="M24.218 57.8245L17.6445 70.874L30.6841 83.6907L24.218 57.8245Z" fill="black"/>
<path d="M31.0612 30.6397L17.7949 34.1243L24.4818 50.8912L31.0612 30.6397Z" fill="black"/>
<path d="M29.4844 3.62183C26.645 4.73166 23.8892 6.09214 21.2526 7.69722C19.308 8.89058 17.4946 10.1674 15.8125 11.5338L32.8069 11.9933L29.4844 3.62183Z" fill="black"/>
<path d="M31.7753 27.9844L33.2606 14.392L14.1426 13.8729L17.149 31.827L31.7753 27.9844Z" fill="black"/>
<path d="M16.3379 100.851C19.8155 106.747 23.5675 112.224 27.2658 117.135L35.766 111.562L16.3379 100.851Z" fill="black"/>
<path d="M31.7762 88.1121L17.0903 73.6783L14.4238 97.0683L36.3514 109.163L31.7762 88.1121Z" fill="black"/>
<path d="M45.5913 0.0835571C40.8908 0.381898 36.2202 1.2948 31.7285 2.81634L35.0093 11.0745L45.5913 0.0835571Z" fill="black"/>
<path d="M28.7168 119.038C35.7377 128.126 42.3767 135.095 46.2659 138.955L37.4496 113.316L28.7168 119.038Z" fill="black"/>
<path d="M34.252 27.2624L46.3848 23.5988L35.5463 15.4481L34.252 27.2624Z" fill="black"/>
<path d="M47.1483 103.906L34.9199 91.3283L38.8628 109.503L47.1483 103.906Z" fill="black"/>
<path d="M49.0222 105.523L39.502 111.95L49.0341 139.654L59.1568 111.968L49.0222 105.523Z" fill="black"/>
<path d="M48.991 22.5725L61.7264 13.0912L48.991 0L36.3809 13.0912L48.991 22.5725Z" fill="black"/>
<path d="M63.4392 91.1732L50.8887 103.882L59.7766 109.533L63.4392 91.1732Z" fill="black"/>
<path d="M51.6094 23.5988L63.9928 27.2744L62.597 15.4183L51.6094 23.5988Z" fill="black"/>
<path d="M65.7104 2.6314C61.3917 1.21727 56.9119 0.369965 52.4023 0.0835571L63.0142 10.985L65.7104 2.6314Z" fill="black"/>
<path d="M51.877 138.818C55.7363 134.982 62.1846 128.191 69.0205 119.378L61.1705 113.4L51.877 138.818Z" fill="black"/>
<path d="M71.9558 54.4533L64.4279 29.8938L48.9844 25.3113L33.8093 29.8938L25.834 54.4533L33.9465 86.9069L49.0023 102.391L64.2967 86.9128L71.9558 54.4533Z" fill="black"/>
<path d="M79.7704 34.1183L67.1543 30.6516L73.3281 50.7836L79.7704 34.1183Z" fill="black"/>
<path d="M73.5918 57.92L67.5312 83.6012L79.9207 70.88L73.5918 57.92Z" fill="black"/>
<path d="M70.4724 117.481C74.2483 112.493 78.0897 106.914 81.6389 100.893L62.7715 111.621L70.4724 117.481Z" fill="black"/>
<path d="M82.2216 11.5697C80.5275 10.1914 78.7022 8.90255 76.7397 7.69725C73.9362 5.98477 70.9953 4.56464 67.9651 3.41901L65.1914 11.9993L82.2216 11.5697Z" fill="black"/>
<path d="M66.4865 88.0883L62.2871 109.145L83.5107 97.0862L80.4924 73.7142L66.4865 88.0883Z" fill="black"/>
<path d="M66.4796 27.9904L80.4318 31.8211L83.8617 13.9146L64.875 14.392L66.4796 27.9904Z" fill="black"/>
<path d="M85.5036 93.9179C88.5696 88.0048 91.2539 81.7515 93.2641 75.2954L82.7656 72.6938L85.5036 93.9179Z" fill="black"/>
<path d="M94.4685 27.9248C92.494 23.1215 89.6905 18.8433 86.0637 15.1021L82.9082 31.5765L94.4685 27.9248Z" fill="black"/>
<path d="M97.4634 50.2765L81.8349 35.4072L74.5039 54.3518L81.6321 68.9527L97.4634 50.2765Z" fill="black"/>
<path d="M93.9445 73.0041C95.9308 66.1184 97.1835 59.6742 97.7085 53.6776L83.5176 70.4205L93.9445 73.0041Z" fill="black"/>
<path d="M98.0004 47.4959C98.0123 41.1472 97.1176 35.3654 95.3101 30.1624L83.6484 33.8438L98.0004 47.4959Z" fill="black"/>
</svg>
