<svg width="98" height="94" viewBox="0 0 98 94" fill="none" xmlns="http://www.w3.org/2000/svg">
<path d="M5.31258 77.967L0 89.8006V64.7986L5.12043 77.4892L5.31258 77.967Z" fill="black"/>
<path d="M5.4476 15.3347L0 28.4617V3.36621L5.4476 15.3347Z" fill="black"/>
<path d="M6.96916 46.4717L0 56.2014V36.8719L6.96916 46.4717Z" fill="black"/>
<path d="M6.90082 17.2516L14.0051 25.3294L7.82521 44.1081L3.18257 37.7186L0.144531 33.5369L6.90082 17.2516Z" fill="black"/>
<path d="M0.181641 59.6869L7.91424 48.7417L14.2447 67.7127L14.3278 67.9621L6.7925 76.0814L0.181641 59.6869Z" fill="black"/>
<path d="M14.7593 23.0384L9.25977 16.7839L16.4471 17.9061L14.7593 23.0384Z" fill="black"/>
<path d="M7.29661 14.3738L1.43359 1.49609L14.4424 6.54532L16.5664 15.8179L7.29661 14.3738Z" fill="black"/>
<path d="M14.7217 86.3566L1.48438 91.5719L7.16045 78.9177L16.6068 77.2502L14.7217 86.3566Z" fill="black"/>
<path d="M16.679 75.1256L9.30469 76.4242L15.0639 70.2218L16.679 75.1256Z" fill="black"/>
<path d="M18.789 76.9645L22.58 78.0709L17.4336 83.5305L18.789 76.9645Z" fill="black"/>
<path d="M23.0788 14.1971L18.6232 15.4801L17.0859 8.76343L23.0788 14.1971Z" fill="black"/>
<path d="M15.3613 4.67522L3.31836 0H29.3413L15.3613 4.67522Z" fill="black"/>
<path d="M15.3351 88.3459L29.6007 93.016H3.48438L15.3351 88.3459Z" fill="black"/>
<path d="M17.3457 6.20239L35.5892 0.0986328L46.2768 7.54254L25.4315 13.5216L17.3457 6.20239Z" fill="black"/>
<path d="M46.6094 85.0786L35.4961 92.7615L17.2266 86.7772L24.8241 78.7255L46.6094 85.0786Z" fill="black"/>
<path d="M48.9139 6.84657L39.0781 0H58.6407L49.0697 6.84657H48.9139Z" fill="black"/>
<path d="M58.5727 92.585L58.9674 92.8603L39.3789 92.8914L49.0173 85.9722L58.5727 92.585Z" fill="black"/>
<path d="M51.6973 7.53751L62.2342 0.103882L80.4621 6.38938L72.6153 13.5633L51.6973 7.53751Z" fill="black"/>
<path d="M80.6858 86.8084L62.4994 92.7615L60.5883 91.442L53.0843 86.2473L51.3965 85.0733L51.7808 84.9642L72.517 78.8865L80.6858 86.8084Z" fill="black"/>
<path d="M79.3978 15.5113L74.9629 14.2335L80.774 8.91931L79.3978 15.5113Z" fill="black"/>
<path d="M74.8066 78.2112L79.2156 76.923L80.8515 84.0709L74.8066 78.2112Z" fill="black"/>
<path d="M88.5489 76.2217L81.2266 75.0787L82.8468 70.2062L88.5489 76.2217Z" fill="black"/>
<path d="M81.4182 67.8998L79.1333 74.7776L72.5224 76.7204L72.5068 76.7152L48.9975 83.6137L24.8077 76.5541H24.7974V76.5489L19.7237 75.0685L18.7526 74.788L18.5656 74.2165L16.4936 67.8946L9.39453 46.3002L16.1664 25.4072L18.7318 17.61L25.4466 15.6776H25.4518L48.9975 9.24646L72.6107 15.7242L79.3046 17.6464L79.3514 17.8021L81.5844 24.6124H81.5896L88.5848 46.347L81.9739 66.2426L81.4182 67.8946V67.8998Z" fill="black"/>
<path d="M83.0328 22.3424L81.584 17.932L88.5999 16.7009L83.0328 22.3424Z" fill="black"/>
<path d="M88.5232 90.6525L94.6043 93.016H68.3945L82.6134 88.3616L88.5232 90.6525Z" fill="black"/>
<path d="M82.4314 4.86736L68.3008 0H94.8741L82.4314 4.86736Z" fill="black"/>
<path d="M91.4927 80.4345L96.5404 91.5409L88.7923 88.5331L83.5368 86.4916L81.418 77.2139L90.6826 78.6632L91.4927 80.4345Z" fill="black"/>
<path d="M96.6086 1.55322L90.9014 14.1918L86.8508 14.8984L81.4551 15.8438L83.3558 6.73751L96.6086 1.55322Z" fill="black"/>
<path d="M91.0511 75.8425L83.5938 67.9672L83.9832 66.788L90.0385 48.7521L92.6402 52.3417L97.8126 59.5727L91.0511 75.8425Z" fill="black"/>
<path d="M91.2535 16.9711L97.8644 33.2927L90.1578 44.0509L83.7598 24.5656L91.2535 16.9711Z" fill="black"/>
<path d="M97.9901 56.1805L94.3393 51.1469L94.3289 51.1313L94.3238 51.1209L91.0469 46.5444L97.9953 36.7264V45.121L97.9901 54.378V56.1805Z" fill="black"/>
<path d="M98.0009 3.5271V28.0772L92.7559 15.1373L98.0009 3.5271Z" fill="black"/>
<path d="M92.5312 77.7022L97.9996 64.5493V89.7228L93.0922 78.9334L92.5312 77.7022Z" fill="black"/>
</svg>
