<svg width="98" height="99" viewBox="0 0 98 99" fill="none" xmlns="http://www.w3.org/2000/svg">
<path d="M10.7083 23.262L0 16.5557L0.103837 81.432L10.8121 74.7153L10.7083 23.262Z" fill="black"/>
<path d="M24.9526 11.0544L18.1548 0.498779L10.8117 6.4312L0.742188 14.5712L11.6842 21.4178L24.9526 11.0544Z" fill="black"/>
<path d="M11.7824 76.5594L0.845703 83.4164L18.1752 97.5355L25.0041 87.0215L11.7824 76.5594Z" fill="black"/>
<path d="M12.8533 55.2663L12.8845 70.866L25.1506 46.0873L12.791 26.3215L12.8533 55.2663Z" fill="black"/>
<path d="M25.3015 13.4232L14.1777 22.1087L25.3015 24.2957V13.4232Z" fill="black"/>
<path d="M25.3006 42.4044V26.4152L13.8965 24.171L25.3006 42.4044Z" fill="black"/>
<path d="M25.3008 50.4664L13.7148 73.8685L25.3008 71.6245V50.4664Z" fill="black"/>
<path d="M25.3686 73.7283L14.2812 75.8789L25.3686 84.6163V73.7283Z" fill="black"/>
<path d="M27.3789 24.2178L45.4926 19.5322L27.3789 12.7843V24.2178Z" fill="black"/>
<path d="M27.4453 73.7803V85.2657L46.7015 78.0867L27.4453 73.7803Z" fill="black"/>
<path d="M32.0996 12.3271L48.9514 18.6023L65.8239 12.3115L49.024 12.3167L32.0996 12.3271Z" fill="black"/>
<path d="M49.0483 79.4268L32.1758 85.7176L65.8948 85.6968L49.0483 79.4268Z" fill="black"/>
<path d="M70.5492 12.7635L52.4043 19.527L70.5492 24.2179V12.7635Z" fill="black"/>
<path d="M27.3789 71.6348L48.9927 76.4711L70.5495 71.6245V26.3631L48.9512 20.7841L27.3789 26.3631V71.6348Z" fill="black"/>
<path d="M70.6265 73.7386L51.3496 78.0659L70.6265 85.2346V73.7386Z" fill="black"/>
<path d="M71.026 10.2284L77.6785 0.00012207H20.3047L26.9051 10.2492L71.026 10.2284Z" fill="black"/>
<path d="M26.9734 87.8007L20.3262 98.0342L77.7104 98.0134L71.1151 87.8007H26.9734Z" fill="black"/>
<path d="M72.627 24.3009L83.7195 22.1606L72.627 13.4128V24.3009Z" fill="black"/>
<path d="M83.8112 75.905L72.7031 73.7179V84.5437L83.8112 75.905Z" fill="black"/>
<path d="M72.627 42.5134L84.0051 24.2178L72.627 26.4151V42.5134Z" fill="black"/>
<path d="M72.627 50.5236V71.588L84.3738 73.8996L72.627 50.5236Z" fill="black"/>
<path d="M85.1091 26.3787L72.7754 46.2015L85.1974 70.9179L85.1091 26.3787Z" fill="black"/>
<path d="M86.2107 21.4803L97.1578 14.6284L79.8335 0.498901L72.9785 11.0389L86.2107 21.4803Z" fill="black"/>
<path d="M81.465 80.3878L73.0469 86.9643L79.8603 97.5147L97.2573 83.4424L86.3154 76.5957L81.465 80.3878Z" fill="black"/>
<path d="M87.2926 74.7517L98.0009 81.4581L97.9022 16.6128L87.1836 23.3243L87.2926 74.7517Z" fill="black"/>
</svg>
