<svg width="98" height="99" viewBox="0 0 98 99" fill="none" xmlns="http://www.w3.org/2000/svg">
<path d="M15.2555 47.713L0 47.9624C0.0986906 43.3901 0.825912 38.8853 2.17122 34.5416L15.2555 47.713Z" fill="black"/>
<path d="M15.8061 49.7861L2.73218 65.202C1.03885 60.3647 0.109079 55.2573 0 50.0407L15.8061 49.7861Z" fill="black"/>
<path d="M24.418 26.722L3.33984 31.1852C5.29288 26.1868 8.03022 21.5833 11.5 17.4579L24.418 26.722Z" fill="black"/>
<path d="M24.4969 71.4473L12.306 81.5064C8.77913 77.5213 5.95864 73.0425 3.91211 68.2416L8.67005 68.9845L24.4969 71.4473Z" fill="black"/>
<path d="M25.9042 39.3321L23.707 41.5508C23.5771 41.6807 23.4525 41.8053 23.3278 41.9352C20.2165 45.0579 18.6738 46.6167 17.8947 47.4168L3.78711 33.2167L3.83384 33.2063L25.9042 28.5302V39.3321Z" fill="black"/>
<path d="M19.3594 48.8872L25.1718 43.0263C25.4367 42.7562 25.6911 42.5067 25.9041 42.2885V55.4806L25.3899 54.9558L19.3594 48.8872Z" fill="black"/>
<path d="M25.9086 5.78296V25.2256L12.8867 15.8887C16.6681 11.7685 21.078 8.37046 25.9086 5.78296Z" fill="black"/>
<path d="M24.1124 56.6237L25.9095 58.4318V69.5663L4.58203 66.2463L17.9728 50.4459L24.1124 56.6237Z" fill="black"/>
<path d="M13.7227 83.0287L25.9083 72.9852V92.2304C21.4257 89.8352 17.3067 86.7437 13.7227 83.0287Z" fill="black"/>
<path d="M36.8477 28.2963L27.9863 37.2382V28.2859L36.8477 28.2963Z" fill="black"/>
<path d="M37.2321 69.8313L27.9863 69.7482V60.5205L37.2321 69.8313Z" fill="black"/>
<path d="M38.9098 26.2128L27.9863 26.2076V6.46362L47.3193 17.7281L38.9098 26.2128Z" fill="black"/>
<path d="M47.3245 79.9891L27.9863 91.5393V71.8265L39.3098 71.9252L47.3245 79.9891Z" fill="black"/>
<path d="M47.9587 15.6912L28.6309 4.43202C34.6458 1.67825 41.2165 0.140286 47.9587 0V15.6912Z" fill="black"/>
<path d="M28.625 93.5814L47.9579 82.0363V98.0289C41.2314 97.8834 34.6555 96.3404 28.625 93.5814Z" fill="black"/>
<path d="M56.1868 71.8734L49.0239 78.7422L42.2402 71.9201L56.1868 71.8734Z" fill="black"/>
<path d="M41.834 26.2179L49.0073 18.9802L56.2999 26.2179H41.834Z" fill="black"/>
<path d="M68.9481 4.22938L50.041 15.6601V0C56.6325 0.13509 62.9747 1.55355 68.9481 4.22938Z" fill="black"/>
<path d="M50.041 82.0155L69.6752 93.4514C63.5772 96.2935 56.9026 97.8833 50.041 98.0288V82.0155Z" fill="black"/>
<path d="M50.6855 17.7125L70.1379 5.94922L70.2211 26.218H59.2456L58.3834 25.3555L50.6855 17.7125Z" fill="black"/>
<path d="M61.3438 28.2963L70.2311 28.3015L70.2674 37.1603L61.3438 28.2963Z" fill="black"/>
<path d="M29.1447 58.7384L27.9863 57.5746V40.1895L39.7721 28.2963H58.3882L70.283 40.1011L70.361 58.2707L58.3623 69.7847L40.1825 69.8521L29.1447 58.7384Z" fill="black"/>
<path d="M61.375 69.7742L70.3715 61.1388L70.413 69.743L61.375 69.7742Z" fill="black"/>
<path d="M70.538 88.8168L70.5536 91.5498L50.7168 79.9944L59.199 71.863L70.4238 71.8214C70.4394 74.783 70.4965 83.3353 70.538 88.8168Z" fill="black"/>
<path d="M79.6268 49.3809L72.4276 56.2809L72.3652 42.1794L75.3467 45.1359L79.6268 49.3809Z" fill="black"/>
<path d="M72.5117 72.8085L85.1856 82.057C81.5341 86.0577 77.2904 89.3831 72.6468 91.9446C72.6364 91.0925 72.6312 89.9234 72.6208 88.5673C72.5844 83.6885 72.5325 76.3416 72.5117 72.8085Z" fill="black"/>
<path d="M85.5744 16.3927L72.298 25.3294L72.2148 5.83484C77.2533 8.54184 81.7359 12.0854 85.5744 16.3927Z" fill="black"/>
<path d="M93.6099 66.6152C91.153 66.9581 85.512 67.753 72.4901 69.5819L72.4434 59.1541L81.0139 50.9343L93.6099 66.6152Z" fill="black"/>
<path d="M74.1777 71.4525L93.895 68.6779C92.0303 72.9384 89.5683 76.9028 86.5608 80.4879L74.1777 71.4525Z" fill="black"/>
<path d="M75.6336 42.4859L72.356 39.2386L72.3145 28.5664L94.4004 33.6635L81.0875 47.9051L75.6336 42.4859Z" fill="black"/>
<path d="M73.8613 26.7895L86.9301 17.9878C90.2959 22.1029 92.9501 26.7116 94.8149 31.6216L84.068 29.1379C80.9255 28.4157 77.7882 27.6935 75.43 27.148L73.8613 26.7895Z" fill="black"/>
<path d="M83.248 50.3887L97.9997 50.0769C97.8906 55.2935 96.9609 60.4062 95.2312 65.3058L83.248 50.3887Z" fill="black"/>
<path d="M83.5586 48.3053L95.9676 35.03C97.2195 39.2178 97.9103 43.5771 97.9986 47.9987L83.5586 48.3053Z" fill="black"/>
</svg>
